# Blender 4.5.0
# www.blender.org
mtllib Bird_simple.mtl
o Plane
v 0.046343 0.236188 0.985086
v 0.103407 0.320769 0.938119
v 0.136624 0.391918 0.834920
v 0.158739 0.384801 0.681692
v 0.170176 0.416647 0.384220
v 0.203032 0.114988 0.288376
v 0.233241 0.270962 0.076369
v 0.152245 0.387065 0.229007
v 0.242739 0.313463 0.363463
v 0.220388 0.263947 0.422355
v 0.177784 0.314335 0.023627
v 0.184935 0.303572 0.664134
v 0.158627 0.291115 0.805711
v 0.118819 0.257625 0.919705
v 0.074044 0.231577 0.953096
v 0.034340 0.138075 0.919592
v 0.079728 0.149882 0.866154
v 0.106099 0.163112 0.784458
v 0.107550 0.152531 0.640310
v 0.054742 0.091445 0.031556
v 0.038179 0.257334 0.989266
v 0.054074 0.319849 0.976709
v 0.072033 0.425804 0.844381
v 0.093040 0.455380 0.684415
v 0.104435 0.439503 0.385591
v 0.096812 0.415198 0.216483
v 0.098873 0.365755 -0.084613
v 0.016100 0.074904 1.004334
v 0.019557 0.086392 1.022143
v 0.020151 0.079385 1.014785
v 0.008010 0.069760 1.003968
v 0.008902 0.088436 1.030413
v 0.003862 0.073753 1.016755
v 0.011850 0.078460 1.008577
v 0.054033 0.152949 0.985948
v 0.024986 0.112842 0.959354
v 0.024665 0.168913 1.019691
v 0.045774 0.163515 1.005188
v 0.008155 0.063951 1.015742
v 0.007015 0.064801 1.017397
v 0.006731 0.062748 1.014519
v 0.005836 0.064889 1.019631
v 0.004996 0.063162 1.015563
v 0.002227 0.062048 1.018515
v 0.081386 0.076723 0.229737
v 0.194068 0.213697 0.467428
v 0.057370 0.140966 -0.224008
v 0.205949 0.179286 0.013653
v 0.109144 0.080708 0.117654
v 0.225285 0.107482 0.125451
v 0.153565 0.154551 -0.039518
v 0.239502 0.174972 0.027041
v 0.064737 0.108826 -0.008397
v 0.108141 0.054795 -0.033569
v 0.169480 0.047307 -0.014870
v 0.133179 0.145698 -0.067760
v 0.174543 0.128686 -0.064961
v 0.079496 0.094577 -0.057978
v 0.106691 0.097921 0.453677
v 0.158455 0.218418 0.788260
v 0.119663 0.217873 0.903108
v 0.170943 0.220589 0.645406
v 0.126725 0.213633 0.879000
v 0.019283 0.076945 1.007839
v 0.047116 0.131479 0.970078
v 0.007443 0.063349 1.015131
v 0.006005 0.063981 1.016480
v 0.004032 0.063469 1.019073
v 0.132327 0.155547 -0.041117
v 0.105926 0.176269 -0.207754
v 0.134037 0.264366 -0.203634
v 0.088771 0.369174 -0.203367
v 0.031091 0.113672 -0.722717
v 0.051357 0.137427 -0.727046
v 0.051088 0.172004 -0.733574
v 0.042810 0.206439 -0.745107
v 0.008138 0.117887 -0.860984
v 0.014495 0.123944 -0.863576
v 0.014794 0.131847 -0.873019
v 0.009932 0.140408 -0.884558
v 0.104453 0.030091 -0.133021
v 0.158191 0.025962 -0.133351
v 0.118928 0.122669 -0.176680
v 0.161399 0.118074 -0.170900
v 0.075612 0.078085 -0.159194
v 0.072465 0.066145 -0.247981
v 0.150710 0.100129 -0.262784
v 0.115388 0.099309 -0.282025
v 0.142980 -0.001587 -0.228124
v 0.099282 0.014008 -0.221522
v 0.066293 0.019712 -0.317214
v 0.137803 0.051118 -0.354346
v 0.097725 0.054283 -0.351039
v 0.132476 -0.040257 -0.322138
v 0.096394 -0.032094 -0.303966
v 0.053487 -0.128873 -0.454085
v 0.118388 -0.105967 -0.491763
v 0.077062 -0.112627 -0.489385
v 0.121145 -0.155241 -0.416394
v 0.084591 -0.156597 -0.411757
v 0.181885 0.382160 0.562934
v 0.212992 0.298180 0.532240
v 0.104150 0.457086 0.541815
v 0.104574 0.150019 0.560436
v 0.191559 0.210592 0.554771
v 0.484050 0.596090 0.339568
v 0.634871 0.448558 0.145064
v 0.559782 0.526666 0.208185
v 0.491932 0.495344 0.360444
v 0.462325 0.450411 0.452021
v 0.644246 0.448077 0.122993
v 0.402150 0.579825 0.539535
v 0.419542 0.491813 0.525955
v 1.311577 0.621605 0.245543
v 1.255762 0.503052 0.142072
v 1.266779 0.574672 0.146642
v 1.349344 0.576781 0.236357
v 1.329683 0.524831 0.270244
v 1.260436 0.510094 0.110870
v 1.336861 0.587778 0.300932
v 1.339414 0.541719 0.297857
v 0.785226 0.706228 0.502974
v 0.805404 0.648918 0.501970
v 0.797024 0.622693 0.435461
v 0.798271 0.644448 0.348341
v 0.858889 0.655917 0.192557
v 0.823890 0.726980 0.326008
v 0.898410 0.559765 0.139732
v 0.894697 0.572319 0.117649
v 1.693183 0.247880 0.068845
v 1.631835 0.259161 0.069772
v 1.671352 0.242539 0.064656
v 1.660717 0.243767 0.080799
v 1.678475 0.247102 0.085508
v 1.642463 0.257530 0.059859
v 1.700363 0.244709 0.076020
v 1.688954 0.251084 0.089976
v 0.240895 0.321314 0.178471
v 0.204945 0.343877 0.174055
v 0.156466 0.372747 0.097967
v 0.108100 0.387004 0.052757
v 0.270102 0.251429 0.214026
v 0.291459 0.175945 0.194157
v 0.258255 0.161814 0.083587
v 0.193902 0.096907 -0.041341
v 0.181618 0.065432 -0.146368
v 0.169802 0.048623 -0.252117
v 0.156125 0.007555 -0.342360
v 0.148686 -0.128966 -0.454268
v 0.064627 0.214795 0.955201
v 0.045398 0.222652 0.982234
v 0.134969 0.250858 0.896829
v 0.111300 0.332253 0.925176
v 0.024889 0.241038 0.991737
v 0.038252 0.337050 0.984948
v 0.055800 0.241150 0.971763
v 0.095750 0.302039 0.939394
v 0.100618 0.261579 0.928241
v 0.073177 0.237534 0.950720
v 0.049377 0.272411 0.975191
v 0.063468 0.303669 0.966389
v 0.052201 0.249750 0.960139
v 0.092630 0.296893 0.934919
v 0.095128 0.262756 0.927749
v 0.068884 0.244608 0.943505
v 0.048367 0.277515 0.960581
v 0.063531 0.302525 0.952909
v 0.064887 0.257201 0.961282
v 0.084921 0.280926 0.947394
v 0.086152 0.266227 0.944388
v 0.073948 0.253549 0.951753
v 0.062572 0.272462 0.962358
v 0.070171 0.283348 0.957895
v 0.048571 0.221653 0.986853
v 0.069258 0.213216 0.958113
v 0.036079 0.131830 0.918954
v 0.026151 0.240923 0.997232
v 0.123689 0.214771 0.903671
v 0.113482 0.075632 -0.328860
v 0.146312 0.069132 -0.322038
v 0.137256 -0.022695 -0.259799
v 0.095855 -0.009355 -0.253024
v 0.069236 0.040475 -0.281751
v 0.162964 0.016070 -0.288654
v 0.073708 -0.156439 -0.459518
v 0.101976 -0.151395 -0.480226
v 0.088157 -0.154739 -0.478347
v 0.111954 -0.159133 -0.445279
v 0.088757 -0.157800 -0.442746
v 0.116012 -0.156540 -0.469257
v 0.081644 -0.260995 -0.484218
v 0.105076 -0.248938 -0.498418
v 0.093115 -0.249999 -0.497352
v 0.109584 -0.268833 -0.470305
v 0.091220 -0.270470 -0.471387
v 0.112405 -0.256651 -0.489189
v 0.148443 -0.288426 -0.511352
v 0.080437 -0.320037 -0.482740
v 0.111429 -0.318880 -0.485206
v 0.089525 -0.240939 -0.535333
v 0.112022 -0.240197 -0.535050
v 0.050283 -0.291912 -0.503074
v 0.144029 -0.300269 -0.531952
v 0.078496 -0.329368 -0.502514
v 0.113620 -0.326746 -0.503955
v 0.091773 -0.253766 -0.554406
v 0.111733 -0.254009 -0.554826
v 0.049835 -0.298275 -0.523306
v 0.134125 -0.308942 -0.491858
v 0.131258 -0.318030 -0.508114
v 0.061439 -0.322777 -0.509066
v 0.059925 -0.311808 -0.487669
v 0.109094 -0.333081 -0.469456
v 0.111202 -0.335615 -0.490860
v 0.086279 -0.332190 -0.487553
v 0.091209 -0.332020 -0.468842
v 0.108544 -0.355134 -0.466032
v 0.109665 -0.351008 -0.485553
v 0.090612 -0.350484 -0.482858
v 0.093414 -0.355359 -0.465839
v 0.104479 -0.406352 -0.482471
v 0.104840 -0.405152 -0.488916
v 0.098912 -0.405012 -0.486995
v 0.099828 -0.406771 -0.481427
v 0.106868 -0.406921 -0.480553
v 0.107542 -0.404440 -0.492295
v 0.096101 -0.404485 -0.488669
v 0.097786 -0.407417 -0.478432
v 0.102937 -0.420851 -0.491442
v 0.103080 -0.416430 -0.494775
v 0.098112 -0.416236 -0.494388
v 0.098176 -0.421100 -0.491031
v 0.100291 -0.428931 -0.506148
v 0.100644 -0.427748 -0.507224
v 0.099120 -0.427769 -0.506917
v 0.099101 -0.428982 -0.506079
v 0.123538 -0.307057 -0.489467
v 0.135248 -0.273383 -0.518517
v 0.121227 -0.312191 -0.510589
v 0.132400 -0.285456 -0.544642
v 0.150051 -0.317141 -0.483084
v 0.162032 -0.310187 -0.489841
v 0.149640 -0.327071 -0.499185
v 0.161776 -0.318713 -0.507091
v 0.173584 -0.379639 -0.498680
v 0.181176 -0.376447 -0.501273
v 0.172113 -0.381156 -0.509067
v 0.180013 -0.377043 -0.511974
v 0.169333 -0.335509 -0.508535
v 0.155232 -0.342851 -0.503346
v 0.171410 -0.334445 -0.489433
v 0.157858 -0.340143 -0.484804
v 0.175002 -0.379156 -0.501648
v 0.179163 -0.377407 -0.503069
v 0.174196 -0.379988 -0.507341
v 0.178525 -0.377733 -0.508934
v 0.181054 -0.382750 -0.512998
v 0.178164 -0.384367 -0.512308
v 0.182274 -0.385404 -0.510424
v 0.179560 -0.386716 -0.509628
v 0.180731 -0.389219 -0.521407
v 0.178937 -0.390222 -0.520979
v 0.181488 -0.390866 -0.519809
v 0.179803 -0.391680 -0.519315
v 0.067821 -0.270773 -0.501899
v 0.119691 -0.263715 -0.502262
v 0.111796 -0.250480 -0.509105
v 0.079763 -0.251316 -0.510556
v 0.112894 -0.287734 -0.486701
v 0.077734 -0.291179 -0.483801
v 0.059820 -0.275578 -0.513625
v 0.072297 -0.306683 -0.481501
v 0.062438 -0.281060 -0.538388
v 0.075307 -0.317583 -0.514068
v 0.038897 -0.308263 -0.483235
v 0.056741 -0.314460 -0.477971
v 0.037160 -0.313627 -0.498425
v 0.055509 -0.321246 -0.493545
v 0.034314 -0.327146 -0.479270
v 0.047839 -0.334423 -0.474898
v 0.033282 -0.329730 -0.492167
v 0.047104 -0.338158 -0.488236
v 0.028313 -0.369475 -0.489098
v 0.035652 -0.373424 -0.486726
v 0.028812 -0.371600 -0.498781
v 0.037571 -0.376940 -0.496290
v 0.029674 -0.370553 -0.490253
v 0.034676 -0.373244 -0.488636
v 0.030015 -0.372001 -0.496852
v 0.035984 -0.375640 -0.495154
v 0.025610 -0.387350 -0.494000
v 0.030321 -0.390266 -0.493268
v 0.026963 -0.385071 -0.499826
v 0.032658 -0.388769 -0.499351
v 0.027409 -0.400442 -0.506870
v 0.029338 -0.401635 -0.507125
v 0.028043 -0.398446 -0.508435
v 0.030384 -0.399866 -0.508924
v 0.109248 -0.308096 -0.524843
v 0.120762 -0.297256 -0.541811
v 0.110801 -0.279651 -0.552904
v 0.076391 -0.295750 -0.537893
v 0.084457 -0.310839 -0.526851
v 0.085304 -0.279246 -0.553004
v 0.122090 -0.249917 -0.530488
v 0.079572 -0.244920 -0.528830
v 0.120860 -0.266870 -0.554363
v 0.079236 -0.268485 -0.555126
v 0.115224 -0.215678 -0.540149
v 0.093794 -0.216942 -0.541733
v 0.114374 -0.227069 -0.554421
v 0.094888 -0.226742 -0.554013
v 0.115326 -0.198410 -0.559496
v 0.093691 -0.200218 -0.560155
v 0.114468 -0.214697 -0.565439
v 0.094795 -0.214231 -0.565269
v 0.111864 -0.183504 -0.585194
v 0.097192 -0.184729 -0.585641
v 0.111282 -0.194548 -0.589224
v 0.097941 -0.194232 -0.589109
v 0.108027 -0.186528 -0.586298
v 0.101073 -0.187109 -0.586509
v 0.107751 -0.191763 -0.588208
v 0.101428 -0.191613 -0.588153
v 0.108027 -0.180382 -0.599786
v 0.101073 -0.180995 -0.599872
v 0.107751 -0.185901 -0.600557
v 0.101428 -0.185743 -0.600535
v 0.107198 -0.178268 -0.614535
v 0.101912 -0.178733 -0.614600
v 0.106988 -0.182463 -0.615121
v 0.102182 -0.182343 -0.615104
v 0.105518 -0.178343 -0.622073
v 0.103611 -0.178511 -0.622096
v 0.105442 -0.179857 -0.622284
v 0.103708 -0.179814 -0.622278
v 0.072489 0.217392 -0.626569
v 0.534811 -0.120056 -1.336572
v 0.072489 0.204502 -0.635583
v 0.534811 -0.133510 -1.344720
v 0.036245 0.217392 -0.626569
v 0.147795 0.028225 -1.098610
v 0.036245 0.204502 -0.635583
v 0.147795 0.014770 -1.106758
v -0.046343 0.236188 0.985086
v -0.103407 0.320769 0.938119
v -0.136624 0.391918 0.834920
v -0.158739 0.384801 0.681692
v -0.170176 0.416647 0.384220
v -0.203032 0.114988 0.288376
v -0.233241 0.270962 0.076369
v -0.152245 0.387065 0.229007
v -0.242739 0.313463 0.363463
v -0.220388 0.263947 0.422355
v -0.177784 0.314335 0.023627
v -0.184935 0.303572 0.664134
v -0.158627 0.291115 0.805711
v -0.118819 0.257625 0.919705
v -0.074044 0.231577 0.953096
v 0.000000 0.120619 0.929244
v 0.000000 0.259545 1.002155
v 0.000000 0.116823 0.864184
v 0.000000 0.336935 0.991346
v 0.000000 0.124554 0.778189
v 0.000000 0.438277 0.854556
v 0.000000 0.113002 0.632346
v 0.000000 0.479714 0.669082
v -0.000000 0.032668 0.289152
v 0.000000 0.454473 0.376427
v 0.000000 0.027455 0.058270
v 0.000000 0.430106 0.211626
v -0.000000 0.129827 -0.226871
v -0.000000 0.387308 -0.104535
v -0.034340 0.138075 0.919592
v -0.079728 0.149882 0.866154
v -0.106099 0.163112 0.784458
v -0.107550 0.152531 0.640310
v -0.054742 0.091445 0.031556
v -0.038179 0.257334 0.989266
v -0.054074 0.319849 0.976709
v -0.072033 0.425804 0.844381
v -0.093040 0.455380 0.684415
v -0.104435 0.439503 0.385591
v -0.096812 0.415198 0.216483
v -0.098873 0.365755 -0.084613
v -0.016100 0.074904 1.004334
v -0.019557 0.086392 1.022143
v -0.020151 0.079385 1.014785
v 0.000000 0.065518 1.004855
v 0.000000 0.091646 1.033320
v -0.008010 0.069760 1.003968
v -0.008902 0.088436 1.030413
v -0.003862 0.073753 1.016755
v 0.000000 0.072110 1.019610
v -0.011850 0.078460 1.008577
v 0.000000 0.170901 1.031333
v -0.054033 0.152949 0.985948
v -0.024986 0.112842 0.959354
v -0.024665 0.168913 1.019691
v -0.045774 0.163515 1.005188
v 0.000000 0.097841 0.954642
v -0.008155 0.063951 1.015742
v -0.007015 0.064801 1.017397
v -0.006731 0.062748 1.014519
v -0.005836 0.064889 1.019631
v 0.000000 0.064726 1.024377
v -0.004996 0.063162 1.015563
v -0.002227 0.062048 1.018515
v 0.000000 0.061659 1.019546
v -0.081386 0.076723 0.229737
v -0.194068 0.213697 0.467428
v -0.057370 0.140966 -0.224008
v -0.205949 0.179286 0.013653
v -0.109144 0.080708 0.117654
v -0.225285 0.107482 0.125451
v -0.153565 0.154551 -0.039519
v -0.239502 0.174972 0.027041
v -0.064737 0.108826 -0.008397
v -0.108141 0.054795 -0.033569
v -0.169480 0.047307 -0.014870
v -0.133179 0.145698 -0.067760
v -0.174543 0.128686 -0.064961
v -0.079496 0.094577 -0.057978
v -0.000000 0.073059 0.475563
v -0.106691 0.097921 0.453677
v -0.158455 0.218418 0.788260
v -0.119663 0.217873 0.903108
v -0.170943 0.220589 0.645406
v -0.126725 0.213633 0.879000
v -0.019283 0.076945 1.007839
v -0.047116 0.131479 0.970078
v -0.007443 0.063349 1.015131
v -0.006005 0.063981 1.016480
v -0.004032 0.063469 1.019073
v 0.000000 0.063192 1.021961
v -0.132327 0.155547 -0.041117
v -0.105926 0.176269 -0.207754
v -0.134037 0.264366 -0.203634
v -0.000000 0.393063 -0.188887
v -0.088771 0.369174 -0.203367
v -0.000000 0.101976 -0.724871
v -0.031091 0.113672 -0.722717
v -0.051357 0.137427 -0.727046
v -0.051088 0.172004 -0.733574
v -0.000000 0.213557 -0.748794
v -0.042810 0.206439 -0.745107
v -0.000000 0.113809 -0.859719
v -0.008138 0.117887 -0.860984
v -0.014495 0.123944 -0.863576
v -0.014794 0.131847 -0.873019
v -0.000000 0.145118 -0.887690
v -0.009932 0.140408 -0.884558
v -0.104453 0.030091 -0.133021
v -0.158191 0.025962 -0.133351
v -0.118928 0.122669 -0.176680
v -0.161399 0.118074 -0.170900
v -0.075612 0.078085 -0.159194
v -0.072465 0.066145 -0.247981
v -0.150710 0.100129 -0.262784
v -0.115388 0.099308 -0.282025
v -0.142980 -0.001587 -0.228125
v -0.099282 0.014008 -0.221522
v -0.066293 0.019712 -0.317214
v -0.137803 0.051118 -0.354346
v -0.097725 0.054283 -0.351039
v -0.132476 -0.040257 -0.322138
v -0.096394 -0.032094 -0.303966
v -0.053487 -0.128873 -0.454085
v -0.118388 -0.105967 -0.491763
v -0.077062 -0.112627 -0.489385
v -0.121145 -0.155241 -0.416394
v -0.084591 -0.156597 -0.411757
v -0.181885 0.382160 0.562934
v -0.212992 0.298180 0.532240
v 0.000000 0.465257 0.533844
v -0.104150 0.457086 0.541815
v 0.000000 0.107033 0.560012
v -0.104574 0.150019 0.560436
v -0.191559 0.210592 0.554771
v -0.484050 0.596090 0.339568
v -0.634871 0.448558 0.145064
v -0.559782 0.526666 0.208185
v -0.491932 0.495344 0.360444
v -0.462325 0.450411 0.452021
v -0.644246 0.448077 0.122993
v -0.402150 0.579825 0.539535
v -0.419542 0.491813 0.525955
v -1.311577 0.621605 0.245543
v -1.255762 0.503052 0.142072
v -1.266779 0.574672 0.146642
v -1.349344 0.576781 0.236357
v -1.329683 0.524831 0.270244
v -1.260436 0.510094 0.110870
v -1.336861 0.587778 0.300932
v -1.339414 0.541719 0.297857
v -0.785226 0.706228 0.502974
v -0.805404 0.648918 0.501970
v -0.797023 0.622693 0.435461
v -0.798271 0.644448 0.348341
v -0.858889 0.655917 0.192557
v -0.823890 0.726980 0.326008
v -0.898410 0.559765 0.139732
v -0.894697 0.572319 0.117649
v -1.693183 0.247880 0.068845
v -1.631835 0.259161 0.069772
v -1.671352 0.242539 0.064656
v -1.660717 0.243767 0.080799
v -1.678475 0.247102 0.085508
v -1.642463 0.257530 0.059859
v -1.700363 0.244709 0.076020
v -1.688954 0.251084 0.089977
v -0.240895 0.321314 0.178471
v -0.204945 0.343877 0.174055
v -0.156466 0.372747 0.097967
v 0.000000 0.408051 0.062769
v -0.108100 0.387004 0.052757
v -0.270102 0.251429 0.214026
v -0.291459 0.175945 0.194157
v -0.258255 0.161814 0.083587
v -0.193902 0.096907 -0.041341
v -0.181618 0.065432 -0.146368
v -0.169802 0.048623 -0.252117
v -0.156125 0.007555 -0.342360
v -0.148686 -0.128966 -0.454268
v -0.064627 0.214795 0.955201
v -0.045398 0.222652 0.982234
v -0.134969 0.250858 0.896829
v -0.111300 0.332253 0.925176
v -0.024889 0.241038 0.991737
v -0.038252 0.337050 0.984948
v -0.055800 0.241150 0.971763
v -0.095750 0.302039 0.939394
v -0.100618 0.261579 0.928241
v -0.073177 0.237534 0.950720
v -0.049377 0.272411 0.975191
v -0.063468 0.303669 0.966389
v -0.052201 0.249750 0.960139
v -0.092630 0.296893 0.934919
v -0.095128 0.262756 0.927749
v -0.068884 0.244608 0.943505
v -0.048367 0.277515 0.960581
v -0.063531 0.302525 0.952909
v -0.064887 0.257201 0.961282
v -0.084921 0.280926 0.947394
v -0.086152 0.266227 0.944388
v -0.073948 0.253549 0.951753
v -0.062572 0.272462 0.962358
v -0.070171 0.283348 0.957895
v 0.000000 0.259236 1.006996
v -0.048571 0.221653 0.986853
v -0.069258 0.213216 0.958113
v -0.036079 0.131830 0.918954
v -0.026151 0.240923 0.997232
v 0.000000 0.112926 0.929111
v -0.123689 0.214771 0.903671
v -0.113482 0.075632 -0.328860
v -0.146312 0.069132 -0.322038
v -0.137255 -0.022695 -0.259799
v -0.095855 -0.009355 -0.253024
v -0.069236 0.040475 -0.281751
v -0.162964 0.016070 -0.288654
v -0.073708 -0.156439 -0.459518
v -0.101976 -0.151395 -0.480226
v -0.088157 -0.154739 -0.478347
v -0.111954 -0.159133 -0.445279
v -0.088757 -0.157800 -0.442746
v -0.116012 -0.156540 -0.469257
v -0.081644 -0.260995 -0.484218
v -0.105076 -0.248938 -0.498418
v -0.093115 -0.249999 -0.497352
v -0.109584 -0.268833 -0.470305
v -0.091220 -0.270470 -0.471387
v -0.112405 -0.256651 -0.489189
v -0.148443 -0.288426 -0.511352
v -0.080437 -0.320037 -0.482740
v -0.111429 -0.318880 -0.485207
v -0.089525 -0.240939 -0.535333
v -0.112022 -0.240197 -0.535050
v -0.050283 -0.291912 -0.503074
v -0.144029 -0.300269 -0.531952
v -0.078496 -0.329368 -0.502514
v -0.113620 -0.326746 -0.503955
v -0.091773 -0.253766 -0.554406
v -0.111733 -0.254009 -0.554826
v -0.049835 -0.298275 -0.523306
v -0.134125 -0.308942 -0.491858
v -0.131258 -0.318030 -0.508114
v -0.061439 -0.322777 -0.509066
v -0.059925 -0.311808 -0.487670
v -0.109094 -0.333081 -0.469456
v -0.111202 -0.335615 -0.490860
v -0.086279 -0.332190 -0.487553
v -0.091209 -0.332020 -0.468842
v -0.108544 -0.355134 -0.466032
v -0.109665 -0.351008 -0.485553
v -0.090612 -0.350484 -0.482858
v -0.093414 -0.355359 -0.465839
v -0.104479 -0.406352 -0.482471
v -0.104840 -0.405151 -0.488916
v -0.098912 -0.405012 -0.486995
v -0.099828 -0.406771 -0.481427
v -0.106868 -0.406921 -0.480553
v -0.107542 -0.404440 -0.492295
v -0.096101 -0.404485 -0.488669
v -0.097786 -0.407417 -0.478432
v -0.102937 -0.420851 -0.491443
v -0.103080 -0.416430 -0.494775
v -0.098112 -0.416236 -0.494388
v -0.098176 -0.421100 -0.491031
v -0.100291 -0.428931 -0.506148
v -0.100644 -0.427748 -0.507225
v -0.099120 -0.427769 -0.506917
v -0.099101 -0.428982 -0.506079
v -0.123538 -0.307057 -0.489467
v -0.135248 -0.273383 -0.518517
v -0.121227 -0.312191 -0.510589
v -0.132400 -0.285456 -0.544642
v -0.150051 -0.317141 -0.483084
v -0.162032 -0.310187 -0.489841
v -0.149640 -0.327071 -0.499185
v -0.161776 -0.318713 -0.507091
v -0.173584 -0.379639 -0.498680
v -0.181176 -0.376447 -0.501273
v -0.172113 -0.381156 -0.509067
v -0.180013 -0.377043 -0.511974
v -0.169333 -0.335509 -0.508534
v -0.155232 -0.342851 -0.503346
v -0.171410 -0.334445 -0.489433
v -0.157858 -0.340143 -0.484804
v -0.175002 -0.379156 -0.501648
v -0.179163 -0.377407 -0.503069
v -0.174196 -0.379988 -0.507341
v -0.178525 -0.377733 -0.508934
v -0.181054 -0.382750 -0.512998
v -0.178164 -0.384367 -0.512308
v -0.182274 -0.385404 -0.510424
v -0.179560 -0.386716 -0.509628
v -0.180731 -0.389219 -0.521407
v -0.178937 -0.390222 -0.520979
v -0.181488 -0.390866 -0.519809
v -0.179803 -0.391680 -0.519315
v -0.067822 -0.270773 -0.501899
v -0.119691 -0.263715 -0.502263
v -0.111796 -0.250480 -0.509105
v -0.079763 -0.251316 -0.510556
v -0.112894 -0.287734 -0.486701
v -0.077734 -0.291179 -0.483801
v -0.059820 -0.275578 -0.513625
v -0.072297 -0.306683 -0.481501
v -0.062438 -0.281060 -0.538389
v -0.075307 -0.317583 -0.514068
v -0.038897 -0.308263 -0.483235
v -0.056741 -0.314460 -0.477971
v -0.037160 -0.313627 -0.498425
v -0.055509 -0.321246 -0.493545
v -0.034314 -0.327146 -0.479270
v -0.047839 -0.334423 -0.474898
v -0.033282 -0.329730 -0.492167
v -0.047104 -0.338158 -0.488236
v -0.028313 -0.369475 -0.489098
v -0.035652 -0.373424 -0.486726
v -0.028812 -0.371600 -0.498781
v -0.037571 -0.376940 -0.496290
v -0.029675 -0.370553 -0.490253
v -0.034676 -0.373244 -0.488636
v -0.030015 -0.372001 -0.496852
v -0.035984 -0.375641 -0.495154
v -0.025610 -0.387350 -0.494000
v -0.030321 -0.390266 -0.493268
v -0.026963 -0.385071 -0.499826
v -0.032658 -0.388769 -0.499351
v -0.027409 -0.400442 -0.506870
v -0.029338 -0.401635 -0.507125
v -0.028043 -0.398446 -0.508435
v -0.030384 -0.399866 -0.508925
v -0.109248 -0.308096 -0.524844
v -0.120762 -0.297256 -0.541811
v -0.110801 -0.279651 -0.552904
v -0.076391 -0.295749 -0.537893
v -0.084457 -0.310839 -0.526851
v -0.085304 -0.279246 -0.553004
v -0.122090 -0.249917 -0.530488
v -0.079572 -0.244920 -0.528830
v -0.120860 -0.266870 -0.554363
v -0.079236 -0.268485 -0.555126
v -0.115224 -0.215678 -0.540149
v -0.093794 -0.216942 -0.541733
v -0.114374 -0.227069 -0.554422
v -0.094888 -0.226742 -0.554013
v -0.115326 -0.198410 -0.559496
v -0.093691 -0.200218 -0.560156
v -0.114468 -0.214697 -0.565439
v -0.094795 -0.214231 -0.565269
v -0.111864 -0.183504 -0.585194
v -0.097192 -0.184729 -0.585641
v -0.111282 -0.194548 -0.589224
v -0.097941 -0.194232 -0.589109
v -0.108027 -0.186528 -0.586298
v -0.101073 -0.187109 -0.586510
v -0.107751 -0.191763 -0.588208
v -0.101428 -0.191613 -0.588153
v -0.108027 -0.180382 -0.599786
v -0.101073 -0.180995 -0.599872
v -0.107751 -0.185901 -0.600557
v -0.101428 -0.185743 -0.600535
v -0.107198 -0.178268 -0.614535
v -0.101912 -0.178733 -0.614600
v -0.106988 -0.182463 -0.615121
v -0.102182 -0.182343 -0.615104
v -0.105518 -0.178344 -0.622073
v -0.103611 -0.178512 -0.622096
v -0.105442 -0.179857 -0.622284
v -0.103708 -0.179814 -0.622278
v -0.072489 0.217392 -0.626569
v -0.534811 -0.120056 -1.336572
v -0.000000 0.221205 -0.628398
v -0.000000 -0.011822 -1.280730
v -0.072489 0.204502 -0.635583
v -0.534811 -0.133510 -1.344720
v -0.000000 0.208315 -0.637413
v -0.000000 -0.025276 -1.288878
v -0.036245 0.217392 -0.626569
v -0.147795 0.028225 -1.098610
v -0.036245 0.204502 -0.635583
v -0.147795 0.014770 -1.106758
vn -0.5808 0.0118 -0.8140
vn -0.9363 -0.1319 -0.3255
vn -0.7511 -0.1147 -0.6501
vn -0.7421 0.6449 -0.1827
vn -0.7261 0.6853 -0.0553
vn -0.3172 0.8635 -0.3922
vn -0.5272 0.8200 -0.2226
vn -0.9634 -0.2135 -0.1621
vn -0.5668 0.6959 -0.4411
vn -0.4317 0.8704 -0.2368
vn -0.7524 0.2317 -0.6166
vn 0.4036 -0.8366 0.3704
vn -0.4018 -0.0332 -0.9151
vn -0.9845 0.1194 -0.1282
vn -0.6644 0.6330 0.3974
vn -0.5634 0.8093 0.1664
vn -0.9277 -0.1384 0.3468
vn -0.9450 0.2727 -0.1807
vn -0.9552 0.1542 -0.2527
vn -0.1552 -0.9770 0.1460
vn -0.2060 -0.9685 0.1397
vn -0.1171 -0.9891 0.0894
vn -0.1757 -0.8019 -0.5710
vn -0.2066 -0.9558 -0.2091
vn -0.2772 -0.0758 -0.9578
vn -0.7585 0.0957 -0.6446
vn -0.6273 -0.7659 -0.1413
vn -0.4727 -0.6812 -0.5590
vn -0.5609 -0.8276 -0.0226
vn -0.6533 -0.7201 0.2337
vn -0.3955 -0.9005 0.1808
vn -0.6683 0.7287 0.1493
vn -0.5073 0.8303 0.2308
vn -0.5992 0.7987 0.0549
vn -0.3380 0.9383 -0.0733
vn -0.3848 0.9160 -0.1137
vn -0.3613 0.9306 0.0595
vn -0.4084 0.9078 -0.0951
vn -0.8743 0.2168 -0.4342
vn -0.4805 0.7263 0.4915
vn -0.5039 0.7781 -0.3750
vn -0.5525 0.4355 -0.7107
vn -0.6139 0.5637 -0.5526
vn -0.6856 0.7001 0.1995
vn 0.7193 -0.0012 0.6947
vn -0.4290 0.8299 0.3567
vn -0.0639 0.9604 -0.2711
vn -0.8653 -0.0622 -0.4974
vn -0.4579 -0.2451 -0.8545
vn -0.5771 -0.2269 -0.7845
vn -0.5126 0.8173 -0.2629
vn -0.4011 0.7600 -0.5115
vn -0.1620 0.8070 -0.5678
vn 0.5317 0.0256 0.8465
vn -0.3711 0.3575 -0.8570
vn 0.6810 0.0543 0.7302
vn -0.6628 0.4966 -0.5604
vn -0.6935 0.6945 -0.1918
vn -0.7046 0.7090 -0.0279
vn -0.0178 0.9907 0.1348
vn -0.2484 0.9669 -0.0576
vn -0.2835 -0.7795 0.5586
vn 0.5886 -0.7856 0.1907
vn -0.8762 0.0985 0.4718
vn 0.7594 0.6460 -0.0772
vn 0.1318 0.9680 -0.2136
vn -0.1788 0.8128 -0.5544
vn -0.4196 0.7584 -0.4987
vn -0.5351 0.8161 -0.2182
vn -0.8034 0.1327 -0.5805
vn -0.7818 0.6177 -0.0853
vn -0.9154 0.3906 -0.0970
vn -0.9556 0.1935 -0.2224
vn 0.1199 0.0660 0.9906
vn -0.2365 -0.7708 0.5916
vn 0.6152 -0.7693 0.1723
vn -0.8296 -0.5216 0.1993
vn -0.2344 -0.9716 -0.0322
vn -0.9187 -0.2160 0.3306
vn -0.7776 0.5262 0.3441
vn -0.9700 0.2221 0.0994
vn -0.9212 -0.3387 0.1914
vn -0.6515 0.7587 0.0025
vn -0.1957 -0.9342 0.2984
vn -0.2472 0.9678 -0.0470
vn -0.3733 0.9237 0.0857
vn -0.9669 0.0904 0.2387
vn -0.9483 -0.1358 0.2869
vn -0.7234 0.6772 0.1346
vn -0.2504 -0.8598 0.4450
vn 0.1754 0.9532 -0.2464
vn -0.9261 -0.3326 0.1780
vn 0.8625 0.4883 -0.1328
vn -0.2628 -0.9475 0.1819
vn 0.7106 -0.7001 0.0704
vn 0.6996 -0.7068 0.1044
vn 0.8923 0.4376 -0.1110
vn 0.1777 0.7924 -0.5835
vn -0.1151 -0.9706 0.2116
vn -0.9402 -0.3008 0.1600
vn -0.1325 -0.7745 0.6185
vn -0.0104 0.9964 -0.0839
vn 0.8873 0.4015 -0.2268
vn 0.7692 -0.6085 0.1950
vn -0.9435 -0.2293 0.2391
vn -0.6454 0.7540 -0.1221
vn -0.8492 -0.2945 0.4383
vn 0.8365 -0.4079 0.3658
vn 0.0807 -0.6518 0.7541
vn 0.8319 0.3268 -0.4485
vn -0.9540 0.2850 -0.0929
vn -0.7036 -0.7049 -0.0897
vn -0.1670 -0.9852 0.0385
vn -0.9440 -0.2737 -0.1841
vn -0.3606 0.9316 -0.0449
vn -0.5863 0.7618 0.2757
vn 0.5765 -0.8171 -0.0026
vn 0.2387 -0.6052 0.7595
vn -0.1225 0.6984 0.7052
vn -0.2321 0.1806 -0.9558
vn -0.3577 -0.0419 -0.9329
vn 0.2596 0.8042 0.5347
vn -0.1200 -0.8831 0.4535
vn 0.0655 0.8848 -0.4613
vn -0.2652 -0.9351 -0.2349
vn 0.0286 0.9067 -0.4208
vn -0.0581 -0.6048 0.7942
vn 0.1545 0.9264 0.3435
vn -0.4054 0.8937 0.1924
vn 0.2866 -0.5569 0.7795
vn -0.3878 0.7898 -0.4753
vn 0.3362 -0.9417 0.0151
vn -0.3795 0.7996 -0.4655
vn 0.3369 -0.7661 0.5473
vn -0.4248 0.8697 0.2512
vn -0.1048 0.0724 -0.9919
vn -0.2378 -0.5082 0.8277
vn 0.5557 0.7720 0.3084
vn -0.4094 -0.6793 0.6091
vn -0.5763 -0.0940 -0.8118
vn 0.6950 0.4302 0.5761
vn 0.3027 0.6398 -0.7064
vn -0.7065 -0.7059 -0.0508
vn 0.2435 0.7357 -0.6320
vn -0.4264 -0.8982 0.1071
vn -0.1672 -0.9744 0.1506
vn -0.6753 -0.6713 0.3055
vn -0.6841 -0.7102 0.1664
vn -0.8772 0.3418 -0.3371
vn -0.8738 0.4858 -0.0217
vn -0.8708 0.4915 0.0086
vn -0.8840 0.4672 -0.0172
vn -0.8326 0.5402 0.1224
vn -0.4984 -0.8520 0.1599
vn -0.8837 0.2051 -0.4208
vn -0.9338 -0.3483 0.0825
vn 0.0472 0.9890 -0.1405
vn -0.1790 0.9721 -0.1516
vn 0.4025 0.8857 0.2312
vn -0.7270 0.2641 -0.6338
vn -0.8270 -0.0422 -0.5607
vn -0.6924 0.3558 -0.6278
vn -0.2645 0.1385 -0.9544
vn -0.6053 -0.2890 -0.7417
vn -0.3462 -0.0504 -0.9368
vn -0.9811 -0.1758 0.0805
vn -0.8711 0.4814 0.0972
vn -0.4322 0.1682 -0.8859
vn -0.6165 0.1686 -0.7691
vn -0.4355 -0.3134 -0.8439
vn -0.7541 -0.2685 -0.5994
vn -0.7076 0.5816 -0.4013
vn -0.5542 -0.3568 -0.7521
vn 0.3919 0.2558 -0.8837
vn -0.1161 0.9434 -0.3107
vn 0.0084 -0.6773 -0.7357
vn -0.5849 -0.7269 -0.3598
vn -0.6521 0.1429 -0.7445
vn -0.5577 0.0052 -0.8300
vn -0.3548 0.7234 -0.5923
vn -0.0376 -0.2985 -0.9537
vn 0.1034 0.0499 -0.9934
vn -0.8734 0.0345 -0.4857
vn -0.3228 -0.8713 -0.3696
vn -0.6011 -0.7791 0.1778
vn -0.5751 -0.8173 0.0367
vn 0.1497 0.9297 -0.3364
vn -0.3404 -0.9398 0.0310
vn 0.2795 -0.0182 0.9600
vn -0.0502 0.6916 0.7205
vn -0.3418 0.7018 0.6250
vn -0.8895 0.4242 -0.1699
vn -0.9430 -0.2155 0.2536
vn -0.1733 0.6448 -0.7444
vn 0.7485 -0.5857 0.3109
vn 0.8997 0.2999 -0.3171
vn -0.2455 -0.8557 0.4556
vn 0.6551 0.7412 -0.1468
vn -0.0356 0.2344 -0.9715
vn -0.5784 0.3542 0.7348
vn 0.7009 0.3643 0.6132
vn 0.0298 0.2479 0.9683
vn -0.6280 0.7771 0.0419
vn -0.7212 -0.1294 0.6805
vn 0.7898 -0.0820 0.6079
vn 0.1422 -0.1818 0.9730
vn -0.9886 0.0579 -0.1387
vn 0.7877 0.1822 -0.5885
vn -0.0553 -0.9810 -0.1862
vn 0.7645 -0.5980 -0.2405
vn -0.7224 -0.5950 -0.3523
vn -0.7351 -0.2512 -0.6298
vn 0.7726 -0.2381 -0.5886
vn -0.7995 0.5391 -0.2650
vn 0.5762 0.6778 -0.4567
vn 0.9747 -0.1187 0.1896
vn 0.8264 -0.4727 0.3058
vn -0.8833 -0.3706 0.2872
vn -0.2431 0.3710 0.8962
vn 0.4586 0.4401 0.7720
vn -0.9913 0.0540 -0.1201
vn -0.6792 0.6159 -0.3993
vn -0.1246 -0.0054 -0.9922
vn -0.8219 0.5423 -0.1744
vn 0.9227 0.3655 -0.1224
vn -0.0774 0.5753 0.8143
vn -0.1243 -0.0989 -0.9873
vn -0.0278 -0.1412 -0.9896
vn -0.0398 -0.7545 -0.6550
vn 0.8214 0.5020 -0.2706
vn 0.0422 0.9251 0.3774
vn 0.2002 -0.1075 0.9738
vn 0.9738 0.1168 -0.1953
vn 0.1551 0.2930 0.9435
vn -0.9963 0.0375 -0.0771
vn 0.9926 -0.0152 -0.1203
vn -0.9978 0.0457 -0.0476
vn -0.0995 0.2490 -0.9634
vn 0.9850 0.1140 -0.1295
vn 0.0299 0.9793 0.2000
vn 0.0518 0.9597 0.2763
vn 0.0805 0.9685 0.2358
vn -0.0092 0.9706 0.2407
vn 0.0521 -0.7383 0.6724
vn 0.1625 -0.5144 0.8420
vn -0.9929 0.1177 0.0165
vn -0.1657 0.5470 -0.8205
vn 0.0930 0.6125 0.7850
vn -0.9858 0.1487 0.0782
vn -0.0821 0.8802 -0.4674
vn 0.9983 0.0375 0.0436
vn -0.2532 -0.5752 -0.7779
vn 0.2326 0.7222 0.6513
vn 0.3266 0.8675 -0.3753
vn -0.8212 -0.4461 0.3560
vn -0.9592 -0.2565 0.1186
vn 0.0203 -0.7008 -0.7131
vn -0.8885 -0.3493 0.2976
vn -0.0039 0.7737 0.6335
vn 0.8883 0.4194 -0.1870
vn -0.3810 0.1677 -0.9092
vn 0.4362 0.0213 0.8996
vn -0.3609 -0.1055 -0.9266
vn 0.9146 0.3474 -0.2069
vn -0.9113 -0.3799 0.1587
vn 0.3408 0.0098 0.9401
vn -0.4702 0.8821 -0.0296
vn -0.4276 0.9039 -0.0038
vn -0.4450 0.8930 -0.0674
vn -0.3994 0.9158 -0.0419
vn -0.4591 0.4985 -0.7353
vn 0.4706 -0.4203 0.7758
vn -0.8905 -0.4492 0.0722
vn 0.7647 0.6387 -0.0854
vn 0.9184 0.3611 -0.1620
vn -0.9496 -0.2297 0.2132
vn 0.5090 -0.6916 0.5124
vn -0.4914 0.7700 -0.4069
vn -0.1607 0.6736 0.7214
vn -0.0840 0.6002 -0.7955
vn 0.7892 -0.1106 -0.6041
vn -0.9509 -0.0395 -0.3071
vn -0.7224 -0.6665 -0.1844
vn 0.6365 -0.7081 -0.3057
vn 0.0419 -0.9934 0.1072
vn 0.3769 -0.5387 -0.7535
vn 0.1357 0.5675 0.8121
vn -0.3241 0.8670 -0.3785
vn 0.8760 -0.4544 0.1619
vn -0.9093 0.4071 -0.0863
vn -0.2550 -0.7511 -0.6090
vn 0.8609 -0.4964 0.1113
vn 0.4849 0.7346 0.4746
vn 0.1901 -0.2385 -0.9523
vn 0.9698 -0.2424 -0.0270
vn -0.0779 0.3553 0.9315
vn 0.9923 -0.1239 0.0024
vn -0.3345 -0.1121 0.9357
vn -0.9430 0.3001 -0.1438
vn 0.3796 0.1578 -0.9116
vn 0.5338 0.8227 -0.1954
vn 0.5109 0.8401 -0.1820
vn 0.5286 0.8345 -0.1558
vn 0.5480 0.8188 -0.1712
vn 0.3152 0.1536 -0.9365
vn 0.9604 -0.2544 0.1138
vn -0.2917 -0.1858 0.9383
vn -0.9058 0.3140 -0.2844
vn 0.9729 -0.0724 0.2196
vn -0.3478 -0.5482 0.7606
vn -0.8989 0.3720 -0.2317
vn 0.4537 0.6643 -0.5941
vn 0.4307 0.4869 0.7599
vn 0.0057 0.7335 0.6797
vn 0.0599 0.6093 0.7907
vn -0.0155 0.1529 0.9881
vn 0.5245 0.6157 0.5881
vn -0.1348 0.9148 0.3808
vn -0.4508 0.8026 0.3906
vn -0.0575 -0.6275 -0.7765
vn -0.0054 -0.0086 0.9999
vn 0.6251 -0.5958 0.5043
vn -0.7392 -0.5381 0.4050
vn 0.0875 -0.7405 -0.6664
vn 0.0521 -0.2379 -0.9699
vn -0.9930 0.1085 -0.0471
vn 0.0208 -0.0170 0.9996
vn -0.9988 0.0387 0.0314
vn 0.0245 0.6668 0.7449
vn 0.9972 0.0564 0.0489
vn -0.9908 0.0029 0.1352
vn 0.0237 0.7644 0.6443
vn 0.9884 0.0232 0.1499
vn 0.0871 -0.8566 -0.5086
vn -0.0001 -0.3428 0.9394
vn -0.0000 -0.3428 0.9394
vn -0.9987 0.0459 0.0213
vn 0.0246 0.9032 0.4285
vn 0.9971 0.0686 0.0319
vn 0.0866 -0.9062 -0.4138
vn 0.0251 0.9732 0.2284
vn 0.9956 0.0652 0.0667
vn 0.0886 -0.9853 -0.1462
vn -0.9972 0.0412 0.0620
vn 0.9741 0.0418 0.2221
vn 0.0879 -0.9961 -0.0096
vn -0.9759 0.0184 0.2173
vn 0.0247 0.9411 0.3371
vn -0.0000 -0.1383 0.9904
vn -0.1274 -0.9275 0.3514
vn 0.1262 0.9270 -0.3531
vn -0.6637 0.4083 -0.6268
vn -0.6745 -0.3824 0.6315
vn -0.0000 0.5731 -0.8195
vn 0.1011 0.5702 -0.8153
vn 0.3112 -0.4923 0.8129
vn 0.1522 0.9297 -0.3354
vn -0.1510 -0.9303 0.3343
vn 0.5808 0.0118 -0.8140
vn 0.9363 -0.1319 -0.3255
vn 0.7511 -0.1147 -0.6501
vn 0.7421 0.6449 -0.1827
vn 0.7261 0.6853 -0.0553
vn 0.3172 0.8635 -0.3922
vn 0.5272 0.8200 -0.2226
vn 0.9634 -0.2135 -0.1621
vn 0.5668 0.6959 -0.4411
vn 0.4317 0.8704 -0.2368
vn 0.7524 0.2317 -0.6166
vn -0.4036 -0.8366 0.3704
vn 0.4018 -0.0332 -0.9151
vn 0.9845 0.1194 -0.1282
vn 0.6644 0.6330 0.3974
vn 0.5634 0.8093 0.1664
vn 0.9277 -0.1384 0.3468
vn 0.9450 0.2727 -0.1807
vn 0.9552 0.1542 -0.2527
vn 0.1552 -0.9770 0.1460
vn 0.2060 -0.9685 0.1397
vn 0.1171 -0.9891 0.0894
vn 0.1757 -0.8019 -0.5710
vn 0.2066 -0.9558 -0.2091
vn 0.2772 -0.0758 -0.9578
vn 0.7585 0.0957 -0.6446
vn 0.6273 -0.7659 -0.1413
vn 0.4727 -0.6812 -0.5590
vn 0.5609 -0.8276 -0.0226
vn 0.6533 -0.7201 0.2337
vn 0.3955 -0.9005 0.1808
vn 0.6683 0.7287 0.1493
vn 0.5073 0.8303 0.2308
vn 0.5992 0.7987 0.0549
vn 0.3380 0.9383 -0.0733
vn 0.3848 0.9160 -0.1137
vn 0.3613 0.9306 0.0595
vn 0.4084 0.9078 -0.0951
vn 0.8743 0.2168 -0.4342
vn 0.4805 0.7263 0.4915
vn 0.5039 0.7781 -0.3750
vn 0.5525 0.4355 -0.7107
vn 0.6139 0.5637 -0.5526
vn 0.6856 0.7001 0.1995
vn -0.7193 -0.0012 0.6947
vn 0.4290 0.8299 0.3567
vn 0.0639 0.9604 -0.2711
vn 0.8653 -0.0622 -0.4974
vn 0.4579 -0.2451 -0.8545
vn 0.5771 -0.2269 -0.7845
vn 0.5126 0.8173 -0.2629
vn 0.4011 0.7600 -0.5115
vn 0.1620 0.8070 -0.5678
vn -0.5317 0.0256 0.8465
vn 0.3711 0.3575 -0.8570
vn -0.6810 0.0543 0.7302
vn 0.6628 0.4966 -0.5604
vn 0.6935 0.6945 -0.1918
vn 0.7046 0.7090 -0.0279
vn 0.0178 0.9907 0.1348
vn 0.2484 0.9669 -0.0576
vn 0.2835 -0.7795 0.5586
vn -0.5886 -0.7856 0.1907
vn 0.8762 0.0985 0.4718
vn -0.7594 0.6460 -0.0772
vn -0.1318 0.9680 -0.2136
vn 0.1788 0.8128 -0.5544
vn 0.4196 0.7584 -0.4987
vn 0.5351 0.8161 -0.2182
vn 0.8034 0.1327 -0.5805
vn 0.7818 0.6177 -0.0853
vn 0.9154 0.3906 -0.0970
vn 0.9556 0.1935 -0.2224
vn -0.1199 0.0660 0.9906
vn 0.2365 -0.7708 0.5916
vn -0.6152 -0.7693 0.1723
vn 0.8296 -0.5216 0.1993
vn 0.2344 -0.9716 -0.0322
vn 0.9187 -0.2160 0.3306
vn 0.7776 0.5262 0.3441
vn 0.9700 0.2221 0.0994
vn 0.9212 -0.3387 0.1914
vn 0.6515 0.7587 0.0025
vn 0.1957 -0.9342 0.2984
vn 0.2472 0.9678 -0.0470
vn 0.3733 0.9237 0.0857
vn 0.9669 0.0904 0.2387
vn 0.9483 -0.1358 0.2869
vn 0.7234 0.6772 0.1346
vn 0.2504 -0.8598 0.4450
vn -0.1754 0.9532 -0.2464
vn 0.9261 -0.3326 0.1780
vn -0.8625 0.4883 -0.1328
vn 0.2628 -0.9475 0.1819
vn -0.7106 -0.7001 0.0704
vn -0.6996 -0.7068 0.1044
vn -0.8923 0.4376 -0.1110
vn -0.1777 0.7924 -0.5835
vn 0.1151 -0.9706 0.2116
vn 0.9402 -0.3008 0.1600
vn 0.1325 -0.7745 0.6185
vn 0.0104 0.9964 -0.0839
vn -0.8873 0.4015 -0.2268
vn -0.7692 -0.6085 0.1950
vn 0.9435 -0.2293 0.2391
vn 0.6454 0.7540 -0.1221
vn 0.8492 -0.2945 0.4383
vn -0.8365 -0.4079 0.3658
vn -0.0807 -0.6518 0.7541
vn -0.8319 0.3268 -0.4485
vn 0.9540 0.2850 -0.0929
vn 0.7036 -0.7049 -0.0897
vn 0.1670 -0.9852 0.0385
vn 0.9440 -0.2737 -0.1841
vn 0.3606 0.9316 -0.0449
vn 0.5863 0.7618 0.2757
vn -0.5765 -0.8171 -0.0026
vn -0.2387 -0.6052 0.7595
vn 0.1225 0.6984 0.7052
vn 0.2321 0.1806 -0.9558
vn 0.3577 -0.0419 -0.9329
vn -0.2596 0.8042 0.5347
vn 0.1200 -0.8831 0.4535
vn -0.0655 0.8848 -0.4613
vn 0.2652 -0.9351 -0.2349
vn -0.0286 0.9067 -0.4208
vn 0.0581 -0.6048 0.7942
vn -0.1545 0.9264 0.3435
vn 0.4054 0.8937 0.1924
vn -0.2866 -0.5569 0.7795
vn 0.3878 0.7898 -0.4753
vn -0.3362 -0.9417 0.0151
vn 0.3795 0.7996 -0.4655
vn -0.3369 -0.7661 0.5473
vn 0.4248 0.8697 0.2512
vn 0.1048 0.0724 -0.9919
vn 0.2378 -0.5082 0.8277
vn -0.5557 0.7720 0.3084
vn 0.4094 -0.6793 0.6091
vn 0.5763 -0.0940 -0.8118
vn -0.6950 0.4302 0.5761
vn -0.3027 0.6398 -0.7064
vn 0.7065 -0.7059 -0.0508
vn -0.2435 0.7357 -0.6320
vn 0.4264 -0.8982 0.1071
vn 0.1672 -0.9744 0.1506
vn 0.6753 -0.6713 0.3055
vn 0.6841 -0.7102 0.1664
vn 0.8772 0.3418 -0.3371
vn 0.8738 0.4858 -0.0217
vn 0.8708 0.4915 0.0086
vn 0.8840 0.4672 -0.0172
vn 0.8326 0.5402 0.1224
vn 0.4984 -0.8520 0.1599
vn 0.8837 0.2051 -0.4208
vn 0.9338 -0.3483 0.0825
vn -0.0472 0.9890 -0.1405
vn 0.1790 0.9721 -0.1516
vn -0.4025 0.8857 0.2312
vn 0.7270 0.2641 -0.6338
vn 0.8270 -0.0422 -0.5607
vn 0.6924 0.3558 -0.6278
vn 0.2645 0.1385 -0.9544
vn 0.6053 -0.2890 -0.7417
vn 0.3462 -0.0504 -0.9368
vn 0.9811 -0.1758 0.0805
vn 0.8711 0.4814 0.0972
vn 0.4322 0.1682 -0.8859
vn 0.6165 0.1686 -0.7691
vn 0.4355 -0.3134 -0.8439
vn 0.7541 -0.2685 -0.5994
vn 0.7076 0.5816 -0.4013
vn 0.5542 -0.3568 -0.7521
vn -0.3919 0.2558 -0.8837
vn 0.1161 0.9434 -0.3107
vn -0.0084 -0.6773 -0.7357
vn 0.5849 -0.7269 -0.3598
vn 0.6521 0.1429 -0.7445
vn 0.5577 0.0052 -0.8300
vn 0.3548 0.7234 -0.5923
vn 0.0376 -0.2985 -0.9537
vn -0.1034 0.0499 -0.9934
vn 0.8734 0.0345 -0.4857
vn 0.3228 -0.8713 -0.3696
vn 0.6011 -0.7791 0.1778
vn 0.5751 -0.8173 0.0367
vn -0.1497 0.9297 -0.3364
vn 0.3404 -0.9398 0.0310
vn -0.2795 -0.0182 0.9600
vn 0.0502 0.6916 0.7205
vn 0.3418 0.7018 0.6250
vn 0.8895 0.4242 -0.1699
vn 0.9430 -0.2155 0.2536
vn 0.1733 0.6448 -0.7444
vn -0.7485 -0.5857 0.3109
vn -0.8997 0.2999 -0.3171
vn 0.2455 -0.8557 0.4556
vn -0.6551 0.7412 -0.1468
vn 0.0356 0.2344 -0.9715
vn 0.5784 0.3542 0.7348
vn -0.7009 0.3643 0.6132
vn -0.0298 0.2479 0.9683
vn 0.6280 0.7771 0.0419
vn 0.7212 -0.1294 0.6805
vn -0.7898 -0.0820 0.6079
vn -0.1422 -0.1818 0.9730
vn 0.9886 0.0579 -0.1387
vn -0.7877 0.1822 -0.5885
vn 0.0553 -0.9810 -0.1862
vn -0.7645 -0.5980 -0.2405
vn 0.7224 -0.5950 -0.3523
vn 0.7351 -0.2512 -0.6297
vn -0.7726 -0.2381 -0.5886
vn 0.7995 0.5391 -0.2650
vn -0.5762 0.6777 -0.4567
vn -0.9747 -0.1187 0.1896
vn -0.8264 -0.4727 0.3058
vn 0.8833 -0.3706 0.2872
vn 0.2431 0.3710 0.8962
vn -0.4586 0.4401 0.7720
vn 0.9913 0.0540 -0.1201
vn 0.6792 0.6159 -0.3993
vn 0.1246 -0.0054 -0.9922
vn 0.8219 0.5423 -0.1743
vn -0.9227 0.3655 -0.1224
vn 0.0774 0.5753 0.8143
vn 0.1243 -0.0989 -0.9873
vn 0.0278 -0.1411 -0.9896
vn 0.0398 -0.7545 -0.6550
vn -0.8214 0.5020 -0.2706
vn -0.0422 0.9251 0.3774
vn -0.2002 -0.1075 0.9738
vn -0.9738 0.1168 -0.1953
vn -0.1551 0.2930 0.9435
vn 0.9963 0.0375 -0.0771
vn -0.9926 -0.0152 -0.1203
vn 0.9978 0.0457 -0.0476
vn 0.0995 0.2490 -0.9634
vn -0.9850 0.1140 -0.1295
vn -0.0299 0.9793 0.2000
vn -0.0517 0.9597 0.2763
vn -0.0805 0.9685 0.2357
vn 0.0092 0.9706 0.2407
vn -0.0521 -0.7383 0.6724
vn -0.1625 -0.5143 0.8420
vn 0.9929 0.1177 0.0165
vn 0.1657 0.5470 -0.8205
vn -0.0929 0.6126 0.7849
vn 0.9858 0.1487 0.0782
vn 0.0821 0.8802 -0.4674
vn -0.9983 0.0375 0.0436
vn 0.2532 -0.5752 -0.7779
vn -0.2326 0.7222 0.6513
vn -0.3266 0.8675 -0.3753
vn 0.8212 -0.4461 0.3560
vn 0.9592 -0.2565 0.1186
vn -0.0203 -0.7008 -0.7131
vn 0.8885 -0.3493 0.2976
vn 0.0039 0.7737 0.6335
vn -0.8883 0.4194 -0.1870
vn 0.3810 0.1677 -0.9092
vn -0.4362 0.0213 0.8996
vn 0.3609 -0.1055 -0.9266
vn -0.9146 0.3474 -0.2069
vn 0.9113 -0.3799 0.1587
vn -0.3408 0.0098 0.9401
vn 0.4702 0.8821 -0.0296
vn 0.4277 0.9039 -0.0038
vn 0.4450 0.8930 -0.0674
vn 0.3994 0.9158 -0.0418
vn 0.4591 0.4985 -0.7353
vn -0.4706 -0.4203 0.7758
vn 0.8905 -0.4492 0.0722
vn -0.7647 0.6387 -0.0854
vn -0.9183 0.3611 -0.1620
vn 0.9496 -0.2298 0.2132
vn -0.5090 -0.6916 0.5124
vn 0.4914 0.7700 -0.4069
vn 0.1607 0.6736 0.7214
vn 0.0840 0.6002 -0.7955
vn -0.7892 -0.1106 -0.6041
vn 0.9509 -0.0395 -0.3071
vn 0.7224 -0.6665 -0.1844
vn -0.6365 -0.7081 -0.3057
vn -0.0419 -0.9934 0.1072
vn -0.3769 -0.5387 -0.7535
vn -0.1357 0.5675 0.8121
vn 0.3241 0.8670 -0.3785
vn -0.8760 -0.4544 0.1619
vn 0.9093 0.4071 -0.0863
vn 0.2550 -0.7510 -0.6090
vn -0.8609 -0.4964 0.1113
vn -0.4849 0.7346 0.4746
vn -0.1901 -0.2385 -0.9523
vn -0.9698 -0.2424 -0.0270
vn 0.0779 0.3553 0.9315
vn -0.9923 -0.1239 0.0024
vn 0.3345 -0.1121 0.9357
vn 0.9430 0.3001 -0.1438
vn -0.3796 0.1578 -0.9116
vn -0.5338 0.8227 -0.1954
vn -0.5109 0.8401 -0.1821
vn -0.5286 0.8344 -0.1558
vn -0.5479 0.8188 -0.1712
vn -0.3152 0.1536 -0.9365
vn -0.9604 -0.2544 0.1138
vn 0.2917 -0.1858 0.9383
vn 0.9058 0.3141 -0.2844
vn -0.9729 -0.0724 0.2196
vn 0.3478 -0.5482 0.7606
vn 0.8989 0.3720 -0.2317
vn -0.4537 0.6643 -0.5941
vn -0.4307 0.4869 0.7599
vn -0.0057 0.7335 0.6797
vn -0.0599 0.6093 0.7907
vn 0.0155 0.1529 0.9881
vn -0.5245 0.6157 0.5881
vn 0.1348 0.9148 0.3808
vn 0.4508 0.8026 0.3906
vn 0.0575 -0.6275 -0.7765
vn 0.0054 -0.0086 0.9999
vn -0.6251 -0.5958 0.5043
vn 0.7392 -0.5382 0.4050
vn -0.0875 -0.7405 -0.6664
vn -0.0521 -0.2379 -0.9699
vn 0.9930 0.1085 -0.0471
vn -0.0208 -0.0170 0.9996
vn 0.9988 0.0387 0.0314
vn -0.0245 0.6668 0.7449
vn -0.9972 0.0564 0.0489
vn 0.9908 0.0029 0.1352
vn -0.0237 0.7644 0.6443
vn -0.9884 0.0232 0.1499
vn -0.0871 -0.8566 -0.5086
vn 0.9987 0.0459 0.0213
vn -0.0246 0.9032 0.4285
vn -0.9971 0.0686 0.0319
vn -0.0866 -0.9062 -0.4138
vn -0.0251 0.9732 0.2284
vn -0.9956 0.0652 0.0667
vn -0.0886 -0.9853 -0.1462
vn 0.9972 0.0412 0.0620
vn -0.9741 0.0419 0.2221
vn -0.0879 -0.9961 -0.0096
vn 0.9759 0.0184 0.2173
vn -0.0247 0.9412 0.3371
vn -0.0001 -0.1383 0.9904
vn 0.1274 -0.9275 0.3514
vn -0.1262 0.9270 -0.3531
vn 0.6637 0.4083 -0.6268
vn 0.6745 -0.3824 0.6315
vn -0.1011 0.5702 -0.8153
vn -0.3112 -0.4923 0.8129
vn -0.1522 0.9297 -0.3354
vn 0.1510 -0.9303 0.3343
vt 0.920430 0.860263
vt 0.923666 0.845422
vt 0.969769 0.861858
vt 0.969278 0.869709
vt 0.881061 0.778837
vt 0.844827 0.792448
vt 0.821501 0.757759
vt 0.860320 0.740404
vt 0.881681 0.835405
vt 0.871086 0.838477
vt 0.865370 0.829358
vt 0.879921 0.827497
vt 0.933183 0.763828
vt 0.898697 0.772122
vt 0.887937 0.729838
vt 0.919686 0.727781
vt 0.875140 0.674808
vt 0.917264 0.675168
vt 0.971325 0.643866
vt 0.921046 0.639350
vt 0.932052 0.594962
vt 0.979953 0.605794
vt 0.955078 0.517634
vt 0.871897 0.598588
vt 0.901289 0.534330
vt 0.804263 0.692214
vt 0.839179 0.682685
vt 0.674064 0.332132
vt 0.687825 0.381839
vt 0.575221 0.403231
vt 0.563303 0.362787
vt 0.635919 0.223577
vt 0.654394 0.303061
vt 0.538609 0.323888
vt 0.482003 0.221186
vt 0.897843 0.785577
vt 0.892581 0.819750
vt 0.689434 0.117493
vt 0.679538 0.186625
vt 0.504344 0.152027
vt 0.530027 0.083107
vt 0.918272 0.876396
vt 0.968327 0.875697
vt 0.962494 0.818340
vt 0.987332 0.852345
vt 0.980354 0.853633
vt 0.977407 0.854881
vt 0.943111 0.824352
vt 0.908211 0.298011
vt 0.955413 0.419334
vt 0.907562 0.393447
vt 0.882423 0.311856
vt 0.872184 0.489288
vt 0.844277 0.500248
vt 0.830136 0.452047
vt 0.862521 0.421052
vt 0.846536 0.578933
vt 0.825370 0.554544
vt 0.752726 0.577718
vt 0.707623 0.576351
vt 0.709034 0.499446
vt 0.750192 0.503480
vt 0.764051 0.436801
vt 0.716421 0.433846
vt 0.733374 0.358381
vt 0.776007 0.375296
vt 0.758255 0.642016
vt 0.713619 0.645274
vt 0.836123 0.831270
vt 0.829059 0.847383
vt 0.771085 0.795547
vt 0.796614 0.773610
vt 0.724608 0.704954
vt 0.765923 0.699743
vt 0.878296 0.846680
vt 0.866477 0.859098
vt 0.844918 0.824981
vt 0.852758 0.820267
vt 0.799699 0.640788
vt 0.780124 0.571812
vt 0.782116 0.457522
vt 0.806021 0.427331
vt 0.775399 0.508653
vt 0.899813 0.787371
vt 0.952272 0.790831
vt 0.980026 0.415112
vt 0.933694 0.288594
vt 0.992633 0.525455
vt 0.968611 0.722726
vt 0.968399 0.674686
vt 0.972534 0.759075
vt 0.974858 0.791283
vt 0.951476 0.786531
vt 0.929416 0.833196
vt 0.974487 0.858269
vt 0.981943 0.815384
vt 0.992633 0.852666
vt 0.988299 0.859263
vt 0.990254 0.861210
vt 0.982992 0.863636
vt 0.983058 0.865079
vt 0.984672 0.856243
vt 0.984012 0.862295
vt 0.983613 0.862389
vt 0.985935 0.865266
vt 0.984799 0.863008
vt 0.976228 0.795954
vt 0.329586 0.509614
vt 0.293181 0.571705
vt 0.265135 0.580718
vt 0.273258 0.504265
vt 0.891086 0.836837
vt 0.894718 0.819793
vt 0.867773 0.861382
vt 0.880128 0.848923
vt 0.984504 0.865195
vt 0.983873 0.863390
vt 0.986936 0.866388
vt 0.985882 0.867948
vt 0.984718 0.869439
vt 0.983118 0.862497
vt 0.874435 0.635217
vt 0.071257 0.628841
vt 0.061857 0.661803
vt 0.000229 0.681889
vt 0.020247 0.611372
vt 0.223233 0.565331
vt 0.204214 0.546267
vt 0.271944 0.461433
vt 0.334283 0.443700
vt 0.096790 0.594020
vt 0.149901 0.578468
vt 0.185755 0.604919
vt 0.166317 0.630989
vt 0.236598 0.590573
vt 0.148248 0.650894
vt 0.296553 0.620473
vt 0.275534 0.626177
vt 0.834652 0.625707
vt 0.084787 0.545873
vt 0.143608 0.552673
vt 0.784657 0.318851
vt 0.838858 0.318543
vt 0.741499 0.319532
vt 0.812869 0.066865
vt 0.828169 0.064682
vt 0.796195 0.065920
vt 0.841343 0.060515
vt 0.775951 0.060125
vt 0.854332 0.052822
vt 0.816380 0.007964
vt 0.819449 0.005095
vt 0.808861 0.008164
vt 0.812998 0.009725
vt 0.804682 0.004747
vt 0.801671 0.000229
vt 0.304390 0.659198
vt 0.286314 0.661937
vt 0.216558 0.664943
vt 0.196849 0.681303
vt 0.254153 0.640412
vt 0.231681 0.655472
vt 0.265136 0.671895
vt 0.251879 0.684679
vt 0.307168 0.669767
vt 0.291223 0.673341
vt 0.241053 0.686555
vt 0.231506 0.701205
vt 0.252452 0.698586
vt 0.258947 0.695350
vt 0.268862 0.703184
vt 0.261131 0.709473
vt 0.334283 0.725334
vt 0.333032 0.738045
vt 0.324174 0.738758
vt 0.322646 0.727295
vt 0.272059 0.682529
vt 0.296784 0.683814
vt 0.278178 0.692209
vt 0.241581 0.712162
vt 0.253369 0.719857
vt 0.293787 0.746201
vt 0.285653 0.755817
vt 0.309529 0.734662
vt 0.301490 0.741260
vt 0.707166 0.040037
vt 0.574962 0.000229
vt 0.650648 0.211878
vt 0.477564 0.211191
vt 0.707166 0.419704
vt 0.568219 0.443242
vt 0.392372 0.396496
vt 0.387508 0.422059
vt 0.148531 0.333200
vt 0.151499 0.313905
vt 0.389048 0.328461
vt 0.397023 0.366729
vt 0.155777 0.301238
vt 0.158393 0.275960
vt 0.367769 0.081481
vt 0.359337 0.151452
vt 0.192625 0.175671
vt 0.174813 0.128123
vt 0.356207 0.217497
vt 0.192910 0.218582
vt 0.392920 0.005990
vt 0.157656 0.105840
vt 0.354767 0.206039
vt 0.191336 0.206597
vt 0.034356 0.212101
vt 0.024057 0.210685
vt 0.037229 0.214935
vt 0.011658 0.209653
vt 0.000229 0.213266
vt 0.015914 0.221968
vt 0.019996 0.219641
vt 0.027213 0.217144
vt 0.817310 0.490105
vt 0.801971 0.487713
vt 0.241575 0.735671
vt 0.278839 0.773248
vt 0.230117 0.728281
vt 0.186599 0.699126
vt 0.220629 0.721593
vt 0.135555 0.680456
vt 0.885413 0.815724
vt 0.888655 0.835431
vt 0.876232 0.791422
vt 0.848989 0.799011
vt 0.864708 0.823189
vt 0.875122 0.823036
vt 0.857083 0.816327
vt 0.873835 0.799675
vt 0.856134 0.802655
vt 0.882711 0.815116
vt 0.872844 0.802212
vt 0.878280 0.814319
vt 0.873801 0.814400
vt 0.870341 0.809151
vt 0.859282 0.803950
vt 0.865069 0.809568
vt 0.863941 0.815722
vt 0.872091 0.818307
vt 0.867228 0.818836
vt 0.311520 0.681398
vt 0.316361 0.742464
vt 0.586713 0.506381
vt 0.587005 0.515763
vt 0.581839 0.513966
vt 0.590127 0.507690
vt 0.305171 0.754769
vt 0.301032 0.762205
vt 0.309722 0.750396
vt 0.294077 0.771904
vt 0.582204 0.507792
vt 0.582650 0.512686
vt 0.591409 0.505738
vt 0.592042 0.510146
vt 0.584792 0.514418
vt 0.590670 0.512175
vt 0.580652 0.508479
vt 0.587371 0.504201
vt 0.596429 0.503322
vt 0.583172 0.496624
vt 0.586041 0.486437
vt 0.608085 0.497073
vt 0.572245 0.502554
vt 0.565737 0.496974
vt 0.598667 0.511341
vt 0.612282 0.515028
vt 0.589766 0.525508
vt 0.593430 0.539086
vt 0.570361 0.518289
vt 0.562502 0.524604
vt 0.596656 0.718485
vt 0.588857 0.716767
vt 0.594242 0.715366
vt 0.599739 0.716749
vt 0.563837 0.729275
vt 0.561686 0.735482
vt 0.554705 0.735706
vt 0.555790 0.729176
vt 0.564663 0.629750
vt 0.553224 0.639570
vt 0.554935 0.621524
vt 0.561950 0.616856
vt 0.570194 0.632513
vt 0.583632 0.648839
vt 0.571686 0.653223
vt 0.560484 0.647281
vt 0.519892 0.662052
vt 0.523880 0.645230
vt 0.538428 0.651093
vt 0.535564 0.663483
vt 0.663015 0.484701
vt 0.671125 0.477561
vt 0.673376 0.484275
vt 0.666743 0.490806
vt 0.687615 0.484915
vt 0.691833 0.496234
vt 0.683139 0.498154
vt 0.683228 0.488167
vt 0.569766 0.739704
vt 0.573202 0.733859
vt 0.575826 0.739226
vt 0.571925 0.745356
vt 0.564965 0.737062
vt 0.568163 0.730206
vt 0.596811 0.726856
vt 0.589165 0.727872
vt 0.585229 0.721928
vt 0.598235 0.722329
vt 0.674902 0.517569
vt 0.660897 0.511149
vt 0.659968 0.503464
vt 0.678671 0.511263
vt 0.582563 0.542828
vt 0.563685 0.534868
vt 0.564346 0.548865
vt 0.574726 0.554489
vt 0.568100 0.567613
vt 0.559026 0.563491
vt 0.600645 0.732300
vt 0.594674 0.730794
vt 0.669301 0.522516
vt 0.659203 0.517933
vt 0.656296 0.524463
vt 0.663547 0.528730
vt 0.648662 0.547376
vt 0.644174 0.544661
vt 0.599979 0.739754
vt 0.595071 0.736993
vt 0.579161 0.743800
vt 0.576835 0.749512
vt 0.626715 0.623503
vt 0.627311 0.626236
vt 0.619023 0.625568
vt 0.620351 0.623044
vt 0.588514 0.750642
vt 0.589420 0.753575
vt 0.552235 0.599299
vt 0.546681 0.596657
vt 0.592468 0.752851
vt 0.591024 0.750176
vt 0.589282 0.751104
vt 0.589900 0.752668
vt 0.591325 0.752337
vt 0.590678 0.750845
vt 0.620489 0.620737
vt 0.615133 0.621459
vt 0.615400 0.621060
vt 0.626527 0.620564
vt 0.627311 0.617649
vt 0.619674 0.618450
vt 0.626902 0.615285
vt 0.618820 0.616464
vt 0.614982 0.620687
vt 0.613978 0.621076
vt 0.616400 0.528540
vt 0.600157 0.541975
vt 0.654940 0.503885
vt 0.655032 0.490131
vt 0.531756 0.674658
vt 0.518811 0.674244
vt 0.520572 0.702875
vt 0.528082 0.698935
vt 0.537251 0.711282
vt 0.535273 0.714463
vt 0.616552 0.550791
vt 0.606678 0.553517
vt 0.524011 0.691209
vt 0.514374 0.691622
vt 0.645617 0.505710
vt 0.642844 0.499164
vt 0.552162 0.723886
vt 0.548280 0.729851
vt 0.538139 0.716496
vt 0.540195 0.712664
vt 0.608536 0.569595
vt 0.618647 0.567951
vt 0.621183 0.597562
vt 0.615519 0.598484
vt 0.639280 0.509402
vt 0.636035 0.503077
vt 0.623459 0.517906
vt 0.621641 0.514362
vt 0.539028 0.713132
vt 0.537447 0.712222
vt 0.536404 0.714093
vt 0.537942 0.715204
vt 0.611354 0.615020
vt 0.611335 0.617250
vt 0.606392 0.618097
vt 0.605996 0.616675
vt 0.609720 0.619731
vt 0.610039 0.622065
vt 0.606410 0.621081
vt 0.606607 0.619581
vt 0.611354 0.624600
vt 0.605747 0.622929
vt 0.601103 0.619412
vt 0.603943 0.619832
vt 0.604191 0.619609
vt 0.603894 0.619195
vt 0.554289 0.521348
vt 0.555754 0.505266
vt 0.692741 0.507613
vt 0.682873 0.516647
vt 0.590264 0.658113
vt 0.580562 0.661892
vt 0.594894 0.708790
vt 0.599654 0.709283
vt 0.549336 0.525273
vt 0.542523 0.515699
vt 0.599776 0.667723
vt 0.592942 0.669996
vt 0.694138 0.521465
vt 0.685429 0.523474
vt 0.538234 0.532464
vt 0.533936 0.523915
vt 0.600645 0.676630
vt 0.595119 0.677267
vt 0.694124 0.529200
vt 0.687337 0.531830
vt 0.593921 0.692657
vt 0.590881 0.691814
vt 0.693882 0.547820
vt 0.689582 0.549487
vt 0.589408 0.694868
vt 0.593237 0.695687
vt 0.516706 0.546114
vt 0.514374 0.541475
vt 0.590264 0.694478
vt 0.592799 0.695028
vt 0.593263 0.693013
vt 0.591158 0.692377
vt 0.603974 0.614563
vt 0.601103 0.613577
vt 0.602902 0.605253
vt 0.604859 0.606793
vt 0.607279 0.613503
vt 0.607536 0.607172
vt 0.610622 0.612744
vt 0.610500 0.605984
vt 0.613520 0.614455
vt 0.613520 0.605801
vt 0.607590 0.601667
vt 0.608199 0.602350
vt 0.608675 0.601935
vt 0.608585 0.599757
vt 0.667562 0.500039
vt 0.677132 0.504004
vt 0.592946 0.484534
vt 0.604894 0.489293
vt 0.676867 0.473849
vt 0.684938 0.476969
vt 0.525600 0.637800
vt 0.540032 0.641657
vt 0.612282 0.476905
vt 0.600810 0.472475
vt 0.605676 0.459119
vt 0.617455 0.463023
vt 0.522231 0.625565
vt 0.531618 0.627051
vt 0.680151 0.462586
vt 0.688044 0.465595
vt 0.525948 0.613000
vt 0.533270 0.618303
vt 0.682661 0.455859
vt 0.690670 0.458790
vt 0.549715 0.614138
vt 0.553070 0.606978
vt 0.533080 0.601117
vt 0.535581 0.605728
vt 0.688707 0.443700
vt 0.694138 0.445687
vt 0.540461 0.604375
vt 0.540491 0.599757
vt 0.613196 0.443700
vt 0.621183 0.446347
vt 0.538980 0.603593
vt 0.538781 0.601501
vt 0.535561 0.602040
vt 0.536502 0.604240
vt 0.616532 0.614664
vt 0.613978 0.614301
vt 0.614392 0.607326
vt 0.616896 0.608224
vt 0.619442 0.614828
vt 0.619828 0.608504
vt 0.621643 0.614759
vt 0.621917 0.608150
vt 0.625035 0.614802
vt 0.625035 0.607780
vt 0.618489 0.602209
vt 0.620147 0.602645
vt 0.621446 0.602408
vt 0.623158 0.601474
vt 0.616981 0.600830
vt 0.620308 0.600928
vt 0.620539 0.600785
vt 0.620513 0.599757
vt 0.619986 0.600580
vt 0.500548 0.842623
vt 0.430629 0.630957
vt 0.513916 0.443700
vt 0.513916 0.834694
vt 0.011400 0.841527
vt 0.017706 0.830210
vt 0.266924 0.779157
vt 0.262400 0.908460
vt 0.012529 0.826966
vt 0.269491 0.773706
vt 0.266815 0.908341
vt 0.269491 0.997378
vt 0.266100 0.999771
vt 0.006324 0.838993
vt 0.000229 0.850433
vt 0.005301 0.852775
vt 0.486974 0.850409
vt 0.334741 0.596070
s 0
usemtl Bird_Body
f 152/5/2 153/6/2 3/7/2 13/8/2
f 1/9/3 21/10/3 160/11/3 156/12/3
f 13/8/8 3/7/8 4/26/8 12/27/8
f 10/28/9 102/29/9 113/30/9 110/31/9
f 61/36/11 150/37/11 152/5/11 63/14/11
f 5/38/12 8/39/12 108/40/12 106/41/12
f 60/15/14 13/8/14 12/27/14 62/17/14
f 63/14/19 152/5/19 13/8/19 60/15/19
f 25/59/20 369/60/20 371/61/20 26/62/20
f 141/63/21 515/64/21 373/65/21 27/66/21
f 103/67/22 475/68/22 369/60/22 25/59/22
f 155/69/23 363/70/23 365/71/23 23/72/23
f 23/72/24 365/71/24 367/73/24 24/74/24
f 154/75/25 361/76/25 363/70/25 155/69/25
f 21/10/26 22/77/26 161/78/26 160/11/26
f 3/7/27 23/72/27 24/74/27 4/26/27
f 153/6/28 155/69/28 23/72/28 3/7/28
f 101/79/29 103/67/29 25/59/29 5/80/29
f 140/81/30 141/63/30 27/66/30 11/82/30
f 5/80/31 25/59/31 26/62/31 8/83/31
f 102/139/73 105/122/73 62/17/73 12/27/73
f 11/82/77 27/66/77 72/142/77 71/143/77
f 27/66/78 373/65/78 439/144/78 72/142/78
f 71/143/82 72/142/82 76/147/82 75/145/82
f 72/142/84 439/144/84 445/149/84 76/147/84
f 75/145/88 76/147/88 80/155/88 79/153/88
f 76/147/90 445/149/90 451/156/90 80/155/90
f 10/57/111 46/24/111 105/122/111 102/139/111
f 4/26/112 24/74/112 103/67/112 101/79/112
f 24/74/113 367/73/113 475/68/113 103/67/113
f 12/27/114 4/26/114 101/79/114 102/139/114
f 101/186/117 5/38/117 106/41/117 112/187/117
f 8/39/118 139/188/118 111/189/118 108/40/118
f 102/29/120 101/190/120 112/191/120 113/30/120
f 123/192/121 122/193/121 120/194/121 121/195/121
f 127/200/123 126/201/123 116/202/123 114/203/123
f 122/206/125 127/200/125 114/203/125 120/207/125
f 124/197/126 123/192/126 121/195/126 118/198/126
f 126/201/127 129/208/127 119/209/127 116/202/127
f 108/40/130 111/189/130 129/208/130 126/201/130
f 110/31/131 113/30/131 123/192/131 124/197/131
f 112/187/132 106/41/132 127/200/132 122/206/132
f 106/41/134 108/40/134 126/201/134 127/200/134
f 113/30/136 112/191/136 122/193/136 123/192/136
f 116/202/137 119/209/137 135/210/137 132/211/137
f 114/203/139 116/202/139 132/211/139 130/213/139
f 121/195/140 120/194/140 136/214/140 137/215/140
f 120/207/143 114/203/143 130/213/143 136/214/143
f 118/198/144 121/195/144 137/215/144 134/216/144
f 8/83/145 26/62/145 141/63/145 140/81/145
f 26/62/146 371/61/146 515/64/146 141/63/146
f 8/83/148 140/81/148 11/82/148 139/219/148
f 1/9/160 15/226/160 150/37/160 151/227/160
f 14/228/161 2/229/161 153/6/161 152/5/161
f 15/226/162 14/228/162 152/5/162 150/37/162
f 21/10/163 1/9/163 151/227/163 154/75/163
f 2/229/164 22/77/164 155/69/164 153/6/164
f 22/77/165 21/10/165 154/75/165 155/69/165
f 2/229/168 14/228/168 158/233/168 157/234/168
f 22/77/169 2/229/169 157/234/169 161/78/169
f 14/228/170 15/226/170 159/235/170 158/233/170
f 15/226/171 1/9/171 156/12/171 159/235/171
f 80/155/190 451/156/190 447/152/190 77/151/190
f 77/151/191 78/154/191 79/153/191 80/155/191
f 341/504/350 342/505/350 338/506/350 337/507/350
f 343/508/351 339/509/351 340/510/351 344/511/351
f 337/512/352 338/513/352 340/510/352 339/509/352
f 342/514/353 717/515/353 721/516/353 344/511/353
f 341/517/354 337/512/354 339/509/354 343/508/354
f 716/518/355 341/517/355 343/508/355 720/519/355
f 338/513/356 342/514/356 344/511/356 340/510/356
f 720/519/357 343/508/357 344/511/357 721/516/357
f 716/520/358 717/521/358 342/505/358 341/504/358
f 527/5/360 357/8/360 347/7/360 528/6/360
f 345/9/361 531/12/361 535/11/361 379/10/361
f 357/8/366 356/27/366 348/26/366 347/7/366
f 354/28/367 484/31/367 487/30/367 474/29/367
f 427/36/369 429/14/369 527/5/369 525/37/369
f 349/38/370 480/41/370 482/40/370 352/39/370
f 426/15/372 428/17/372 356/27/372 357/8/372
f 429/14/377 426/15/377 357/8/377 527/5/377
f 383/59/378 384/62/378 371/61/378 369/60/378
f 516/63/379 385/66/379 373/65/379 515/64/379
f 476/67/380 383/59/380 369/60/380 475/68/380
f 530/69/381 381/72/381 365/71/381 363/70/381
f 381/72/382 382/74/382 367/73/382 365/71/382
f 529/75/383 530/69/383 363/70/383 361/76/383
f 379/10/384 535/11/384 536/78/384 380/77/384
f 347/7/385 348/26/385 382/74/385 381/72/385
f 528/6/386 347/7/386 381/72/386 530/69/386
f 473/79/387 349/80/387 383/59/387 476/67/387
f 514/81/388 355/82/388 385/66/388 516/63/388
f 349/80/389 352/83/389 384/62/389 383/59/389
f 474/139/431 356/27/431 428/17/431 479/122/431
f 355/82/435 438/143/435 440/142/435 385/66/435
f 385/66/436 440/142/436 439/144/436 373/65/436
f 438/143/440 444/145/440 446/147/440 440/142/440
f 440/142/442 446/147/442 445/149/442 439/144/442
f 444/145/446 450/153/446 452/155/446 446/147/446
f 446/147/448 452/155/448 451/156/448 445/149/448
f 354/57/469 474/139/469 479/122/469 411/24/469
f 348/26/470 473/79/470 476/67/470 382/74/470
f 382/74/471 476/67/471 475/68/471 367/73/471
f 356/27/472 474/139/472 473/79/472 348/26/472
f 473/186/475 486/187/475 480/41/475 349/38/475
f 352/39/476 482/40/476 485/189/476 513/188/476
f 474/29/478 487/30/478 486/191/478 473/190/478
f 497/192/479 495/195/479 494/194/479 496/193/479
f 501/200/481 488/203/481 490/202/481 500/201/481
f 496/206/483 494/207/483 488/203/483 501/200/483
f 498/197/484 492/198/484 495/195/484 497/192/484
f 500/201/485 490/202/485 493/209/485 503/208/485
f 482/40/488 500/201/488 503/208/488 485/189/488
f 484/31/489 498/197/489 497/192/489 487/30/489
f 486/187/490 496/206/490 501/200/490 480/41/490
f 480/41/492 501/200/492 500/201/492 482/40/492
f 487/30/494 497/192/494 496/193/494 486/191/494
f 490/202/495 506/211/495 509/210/495 493/209/495
f 488/203/497 504/213/497 506/211/497 490/202/497
f 495/195/498 511/215/498 510/214/498 494/194/498
f 494/207/501 510/214/501 504/213/501 488/203/501
f 492/198/502 508/216/502 511/215/502 495/195/502
f 352/83/503 514/81/503 516/63/503 384/62/503
f 384/62/504 516/63/504 515/64/504 371/61/504
f 352/83/506 513/219/506 355/82/506 514/81/506
f 345/9/518 526/227/518 525/37/518 359/226/518
f 358/228/519 527/5/519 528/6/519 346/229/519
f 359/226/520 525/37/520 527/5/520 358/228/520
f 379/10/521 529/75/521 526/227/521 345/9/521
f 346/229/522 528/6/522 530/69/522 380/77/522
f 380/77/523 530/69/523 529/75/523 379/10/523
f 346/229/526 532/234/526 533/233/526 358/228/526
f 380/77/527 536/78/527 532/234/527 346/229/527
f 358/228/528 533/233/528 534/235/528 359/226/528
f 359/226/529 534/235/529 531/12/529 345/9/529
f 452/155/548 448/151/548 447/152/548 451/156/548
f 448/151/549 452/155/549 450/153/549 449/154/549
f 722/504/706 714/507/706 715/506/706 723/505/706
f 724/508/707 725/511/707 719/510/707 718/509/707
f 714/512/708 718/509/708 719/510/708 715/513/708
f 723/514/709 725/511/709 721/516/709 717/515/709
f 722/517/354 724/508/354 718/509/354 714/512/354
f 716/518/710 720/519/710 724/508/710 722/517/710
f 715/513/711 719/510/711 725/511/711 723/514/711
f 720/519/712 721/516/712 725/511/712 724/508/712
f 716/520/713 722/504/713 723/505/713 717/521/713
usemtl Bird_Eye
f 37/1/1 38/2/1 29/3/1 32/4/1
f 396/42/13 37/1/13 32/4/13 390/43/13
f 36/44/15 31/45/15 28/46/15 64/47/15 65/48/15
f 38/2/39 35/94/39 30/95/39 29/3/39
f 36/44/40 401/96/40 389/97/40 31/45/40
f 33/98/41 31/45/41 389/97/41 394/99/41
f 32/4/42 29/3/42 40/100/42 42/101/42
f 31/45/43 33/98/43 34/102/43 28/46/43
f 64/47/44 28/46/44 41/103/44 66/104/44
f 34/102/45 33/98/45 44/105/45 43/106/45
f 68/116/51 42/101/51 40/100/51 67/117/51
f 68/116/52 44/105/52 409/118/52 435/119/52
f 67/117/53 66/104/53 41/103/53 43/106/53
f 33/98/54 394/99/54 409/118/54 44/105/54
f 390/43/55 32/4/55 42/101/55 406/120/55
f 28/46/56 34/102/56 43/106/56 41/103/56
f 29/3/57 30/95/57 39/121/57 40/100/57
f 40/100/67 39/121/67 66/104/67 67/117/67
f 42/101/68 68/116/68 435/119/68 406/120/68
f 44/105/69 68/116/69 67/117/69 43/106/69
f 30/95/71 64/47/71 66/104/71 39/121/71
f 35/94/72 65/48/72 64/47/72 30/95/72
f 164/236/172 165/237/172 171/238/172 170/239/172
f 167/232/173 163/240/173 169/241/173 173/242/173
f 171/238/178 168/243/178 169/241/178 170/239/178
f 168/243/179 172/244/179 173/242/179 169/241/179
f 165/237/180 162/231/180 168/243/180 171/238/180
f 166/230/181 167/232/181 173/242/181 172/244/181
f 162/231/182 166/230/182 172/244/182 168/243/182
f 163/240/183 164/236/183 170/239/183 169/241/183
f 223/335/236 224/336/236 232/337/236 231/338/236
f 230/349/244 231/338/244 235/350/244 234/351/244
f 222/352/245 223/335/245 231/338/245 230/349/245
f 221/353/246 222/352/246 230/349/246 229/354/246
f 224/355/247 221/353/247 229/354/247 232/356/247
f 233/357/248 234/351/248 235/350/248 236/358/248
f 229/354/249 230/349/249 234/351/249 233/357/249
f 232/356/250 229/354/250 233/357/250 236/358/250
f 231/338/251 232/337/251 236/358/251 235/350/251
f 253/391/271 254/392/271 259/393/271 260/394/271
f 256/395/272 255/396/272 258/397/272 257/398/272
f 254/392/273 256/395/273 257/398/273 259/393/273
f 255/396/274 253/399/274 260/400/274 258/397/274
f 258/397/275 260/400/275 264/401/275 262/402/275
f 259/393/276 257/398/276 261/403/276 263/404/276
f 257/398/277 258/397/277 262/402/277 261/403/277
f 260/394/278 259/393/278 263/404/278 264/401/278
f 262/402/279 264/401/279 263/404/279 261/403/279
f 287/437/305 288/438/305 292/439/305 291/440/305
f 289/441/306 287/437/306 291/440/306 293/442/306
f 290/443/307 289/441/307 293/442/307 294/444/307
f 288/445/308 290/443/308 294/444/308 292/446/308
f 293/442/309 291/440/309 295/447/309 297/448/309
f 294/444/310 293/442/310 297/448/310 298/449/310
f 292/446/311 294/444/311 298/449/311 296/450/311
f 291/440/312 292/439/312 296/450/312 295/447/312
f 296/450/313 298/449/313 297/448/313 295/447/313
f 323/485/337 321/486/337 325/487/337 327/488/337
f 324/489/338 323/485/338 327/488/338 328/490/338
f 322/491/339 324/489/339 328/490/339 326/492/339
f 321/493/340 322/491/340 326/492/340 325/494/340
f 328/490/341 327/488/341 331/495/341 332/496/341
f 326/492/342 328/490/342 332/496/342 330/497/342
f 325/494/343 326/492/343 330/497/343 329/498/343
f 327/488/344 325/487/344 329/499/344 331/495/344
f 330/497/345 332/496/345 336/500/345 334/501/345
f 329/498/346 330/497/346 334/501/346 333/502/346
f 331/495/347 329/499/347 333/502/347 335/503/347
f 332/496/348 331/495/348 335/503/348 336/500/348
f 334/501/349 336/500/349 335/503/349 333/502/349
f 399/1/359 392/4/359 387/3/359 400/2/359
f 396/42/371 390/43/371 392/4/371 399/1/371
f 398/44/373 431/48/373 430/47/373 386/46/373 391/45/373
f 400/2/397 387/3/397 388/95/397 397/94/397
f 398/44/398 391/45/398 389/97/398 401/96/398
f 393/98/399 394/99/399 389/97/399 391/45/399
f 392/4/400 405/101/400 403/100/400 387/3/400
f 391/45/401 386/46/401 395/102/401 393/98/401
f 430/47/402 432/104/402 404/103/402 386/46/402
f 395/102/403 407/106/403 408/105/403 393/98/403
f 434/116/409 433/117/409 403/100/409 405/101/409
f 434/116/410 435/119/410 409/118/410 408/105/410
f 433/117/411 407/106/411 404/103/411 432/104/411
f 393/98/412 408/105/412 409/118/412 394/99/412
f 390/43/413 406/120/413 405/101/413 392/4/413
f 386/46/414 404/103/414 407/106/414 395/102/414
f 387/3/415 403/100/415 402/121/415 388/95/415
f 403/100/425 433/117/425 432/104/425 402/121/425
f 405/101/426 406/120/426 435/119/426 434/116/426
f 408/105/427 407/106/427 433/117/427 434/116/427
f 388/95/429 402/121/429 432/104/429 430/47/429
f 397/94/430 388/95/430 430/47/430 431/48/430
f 539/236/530 545/239/530 546/238/530 540/237/530
f 542/232/531 548/242/531 544/241/531 538/240/531
f 546/238/536 545/239/536 544/241/536 543/243/536
f 543/243/537 544/241/537 548/242/537 547/244/537
f 540/237/538 546/238/538 543/243/538 537/231/538
f 541/230/539 547/244/539 548/242/539 542/232/539
f 537/231/540 543/243/540 547/244/540 541/230/540
f 538/240/541 544/241/541 545/239/541 539/236/541
f 600/335/594 608/338/594 609/337/594 601/336/594
f 607/349/602 611/351/602 612/350/602 608/338/602
f 599/352/603 607/349/603 608/338/603 600/335/603
f 598/353/604 606/354/604 607/349/604 599/352/604
f 601/355/605 609/356/605 606/354/605 598/353/605
f 610/357/606 613/358/606 612/350/606 611/351/606
f 606/354/607 610/357/607 611/351/607 607/349/607
f 609/356/608 613/358/608 610/357/608 606/354/608
f 608/338/609 612/350/609 613/358/609 609/337/609
f 630/391/629 637/394/629 636/393/629 631/392/629
f 633/395/630 634/398/630 635/397/630 632/396/630
f 631/392/631 636/393/631 634/398/631 633/395/631
f 632/396/632 635/397/632 637/400/632 630/399/632
f 635/397/633 639/402/633 641/401/633 637/400/633
f 636/393/634 640/404/634 638/403/634 634/398/634
f 634/398/635 638/403/635 639/402/635 635/397/635
f 637/394/636 641/401/636 640/404/636 636/393/636
f 639/402/637 638/403/637 640/404/637 641/401/637
f 664/437/663 668/440/663 669/439/663 665/438/663
f 666/441/664 670/442/664 668/440/664 664/437/664
f 667/443/665 671/444/665 670/442/665 666/441/665
f 665/445/666 669/446/666 671/444/666 667/443/666
f 670/442/667 674/448/667 672/447/667 668/440/667
f 671/444/668 675/449/668 674/448/668 670/442/668
f 669/446/669 673/450/669 675/449/669 671/444/669
f 668/440/670 672/447/670 673/450/670 669/439/670
f 673/450/671 672/447/671 674/448/671 675/449/671
f 700/485/693 704/488/693 702/487/693 698/486/693
f 701/489/694 705/490/694 704/488/694 700/485/694
f 699/491/695 703/492/695 705/490/695 701/489/695
f 698/493/696 702/494/696 703/492/696 699/491/696
f 705/490/697 709/496/697 708/495/697 704/488/697
f 703/492/698 707/497/698 709/496/698 705/490/698
f 702/494/699 706/498/699 707/497/699 703/492/699
f 704/488/700 708/495/700 706/499/700 702/487/700
f 707/497/701 711/501/701 713/500/701 709/496/701
f 706/498/702 710/502/702 711/501/702 707/497/702
f 708/495/703 712/503/703 710/502/703 706/499/703
f 709/496/704 713/500/704 712/503/704 708/495/704
f 711/501/705 710/502/705 712/503/705 713/500/705
usemtl Bird_Yellow
f 178/84/32 176/85/32 36/44/32 65/48/32
f 176/85/46 554/107/46 401/96/46 36/44/46
f 174/112/48 175/113/48 35/94/48 38/2/48
f 549/114/49 177/115/49 37/1/49 396/42/49
f 177/115/50 174/112/50 38/2/50 37/1/50
f 175/113/70 178/84/70 65/48/70 35/94/70
f 16/93/74 176/85/74 178/84/74 61/36/74
f 156/12/166 160/11/166 166/230/166 162/231/166
f 160/11/167 161/78/167 167/232/167 166/230/167
f 157/234/174 158/233/174 164/236/174 163/240/174
f 161/78/175 157/234/175 163/240/175 167/232/175
f 158/233/176 159/235/176 165/237/176 164/236/176
f 159/235/177 156/12/177 162/231/177 165/237/177
f 150/37/184 61/36/184 178/84/184 175/113/184
f 154/75/185 151/227/185 174/112/185 177/115/185
f 361/76/186 154/75/186 177/115/186 549/114/186
f 151/227/188 150/37/188 175/113/188 174/112/188
f 16/93/189 360/92/189 554/107/189 176/85/189
f 188/247/199 194/248/199 195/249/199 189/250/199
f 190/255/204 186/256/204 192/257/204 196/258/204
f 187/259/205 185/260/205 191/261/205 193/262/205
f 186/256/206 187/259/206 193/262/206 192/257/206
f 188/247/207 190/255/207 196/258/207 194/248/207
f 185/260/208 189/250/208 195/249/208 191/261/208
f 267/263/209 268/264/209 306/265/209 305/266/209
f 268/264/210 265/267/210 271/268/210 306/265/210
f 266/269/211 267/263/211 305/266/211 238/270/211
f 269/271/212 266/269/212 238/270/212 237/272/212
f 265/267/213 270/273/213 272/274/213 271/268/213
f 212/275/214 211/276/214 278/277/214 276/278/214
f 210/279/215 209/280/215 241/281/215 243/282/215
f 200/283/216 206/284/216 312/285/216 310/286/216
f 306/287/217 271/288/217 273/289/217 308/290/217
f 238/291/218 305/292/218 307/293/218 240/294/218
f 240/295/219 307/296/219 301/297/219 300/298/219
f 308/299/220 273/300/220 302/301/220 304/302/220
f 199/303/221 205/304/221 214/305/221 213/306/221
f 270/273/223 269/271/223 237/272/223 272/274/223
f 205/304/224 199/303/224 237/307/224 239/308/224
f 198/309/225 204/310/225 274/311/225 272/312/225
f 204/313/226 205/314/226 239/315/226 274/316/226
f 199/317/227 198/318/227 272/274/227 237/272/227
f 216/319/228 213/320/228 217/321/228 220/322/228
f 198/318/229 199/317/229 213/320/229 216/319/229
f 204/310/230 198/309/230 216/323/230 215/324/230
f 205/314/231 204/313/231 215/325/231 214/326/231
f 218/327/232 219/328/232 227/329/232 226/330/232
f 215/324/233 216/323/233 220/331/233 219/332/233
f 214/326/234 215/325/234 219/328/234 218/327/234
f 213/306/235 214/305/235 218/333/235 217/334/235
f 217/334/237 218/333/237 226/339/237 225/340/237
f 220/322/238 217/321/238 225/341/238 228/342/238
f 219/332/239 220/331/239 228/343/239 227/344/239
f 222/345/240 221/346/240 225/340/240 226/339/240
f 224/347/241 223/348/241 227/344/241 228/343/241
f 223/348/242 222/345/242 226/339/242 227/344/242
f 221/346/243 224/347/243 228/343/243 225/340/243
f 197/359/252 209/360/252 237/272/252 238/270/252
f 210/361/253 203/362/253 240/295/253 239/315/253
f 209/280/254 210/279/254 239/308/254 237/307/254
f 203/363/255 197/364/255 238/291/255 240/294/255
f 251/365/256 249/366/256 248/367/256 246/368/256
f 209/360/257 197/359/257 242/369/257 241/370/257
f 197/364/258 203/363/258 244/371/258 242/372/258
f 203/362/259 210/361/259 243/373/259 244/374/259
f 250/375/260 252/376/260 245/377/260 247/378/260
f 252/379/261 251/380/261 246/381/261 245/382/261
f 244/374/262 243/373/262 250/383/262 249/384/262
f 241/370/263 242/369/263 251/380/263 252/379/263
f 243/282/264 241/281/264 252/376/264 250/375/264
f 242/372/265 244/371/265 249/366/265 251/365/265
f 249/384/266 250/383/266 247/385/266 248/386/266
f 248/367/267 247/378/267 255/387/267 256/388/267
f 246/368/268 248/367/268 256/388/268 254/389/268
f 247/378/269 245/377/269 253/390/269 255/387/269
f 245/377/270 246/368/270 254/389/270 253/390/270
f 195/249/280 194/248/280 269/271/280 270/273/280
f 191/261/281 195/249/281 270/273/281 265/267/281
f 194/248/282 196/258/282 266/269/282 269/271/282
f 196/258/283 192/257/283 267/263/283 266/269/283
f 193/262/284 191/261/284 265/267/284 268/264/284
f 192/257/285 193/262/285 268/264/285 267/263/285
f 212/405/286 202/406/286 271/268/286 272/274/286
f 208/407/287 211/408/287 274/316/287 273/300/287
f 211/276/288 212/275/288 272/312/288 274/311/288
f 202/409/289 208/410/289 273/289/289 271/288/289
f 276/278/290 278/277/290 282/411/290 280/412/290
f 202/406/291 212/405/291 276/413/291 275/414/291
f 208/410/292 202/409/292 275/415/292 277/416/292
f 211/408/293 208/407/293 277/417/293 278/418/293
f 275/414/294 276/413/294 280/419/294 279/420/294
f 277/416/295 275/415/295 279/421/295 281/422/295
f 278/418/296 277/417/296 281/423/296 282/424/296
f 281/422/297 279/421/297 283/425/297 285/426/297
f 282/424/298 281/423/298 285/427/298 286/428/298
f 280/412/299 282/411/299 286/429/299 284/430/299
f 279/420/300 280/419/300 284/431/300 283/432/300
f 284/430/301 286/429/301 290/433/301 288/434/301
f 283/425/302 284/430/302 288/434/302 287/435/302
f 285/426/303 283/425/303 287/435/303 289/436/303
f 286/429/304 285/426/304 289/436/304 290/433/304
f 299/451/314 300/298/314 302/301/314 303/452/314
f 300/298/315 301/297/315 304/302/315 302/301/315
f 307/296/316 308/299/316 304/302/316 301/297/316
f 273/300/317 274/316/317 303/452/317 302/301/317
f 274/316/318 239/315/318 299/451/318 303/452/318
f 239/315/319 240/295/319 300/298/319 299/451/319
f 200/453/320 201/454/320 305/266/320 306/265/320
f 207/455/321 206/456/321 308/299/321 307/296/321
f 206/284/322 200/283/322 306/287/322 308/290/322
f 201/457/323 207/458/323 307/293/323 305/292/323
f 309/459/324 310/460/324 314/461/324 313/462/324
f 201/454/325 200/453/325 310/460/325 309/459/325
f 207/458/326 201/457/326 309/463/326 311/464/326
f 206/456/327 207/455/327 311/465/327 312/466/327
f 311/464/328 309/463/328 313/467/328 315/468/328
f 312/466/329 311/465/329 315/469/329 316/470/329
f 310/286/330 312/285/330 316/471/330 314/472/330
f 315/468/331 313/467/331 317/473/331 319/474/331
f 316/470/332 315/469/332 319/475/332 320/476/332
f 314/472/333 316/471/333 320/477/333 318/478/333
f 313/462/334 314/461/334 318/479/334 317/480/334
f 318/478/335 320/477/335 324/481/335 322/482/335
f 317/473/336 318/478/336 322/482/336 321/483/336
f 319/474/336 317/473/336 321/483/336 323/484/336
f 320/477/336 319/474/336 323/484/336 324/481/336
f 555/84/390 431/48/390 398/44/390 552/85/390
f 552/85/404 398/44/404 401/96/404 554/107/404
f 550/112/406 400/2/406 397/94/406 551/113/406
f 549/114/407 396/42/407 399/1/407 553/115/407
f 553/115/408 399/1/408 400/2/408 550/112/408
f 551/113/428 397/94/428 431/48/428 555/84/428
f 374/93/432 427/36/432 555/84/432 552/85/432
f 531/12/524 537/231/524 541/230/524 535/11/524
f 535/11/525 541/230/525 542/232/525 536/78/525
f 532/234/532 538/240/532 539/236/532 533/233/532
f 536/78/533 542/232/533 538/240/533 532/234/533
f 533/233/534 539/236/534 540/237/534 534/235/534
f 534/235/535 540/237/535 537/231/535 531/12/535
f 525/37/542 551/113/542 555/84/542 427/36/542
f 529/75/543 553/115/543 550/112/543 526/227/543
f 361/76/544 549/114/544 553/115/544 529/75/544
f 526/227/546 550/112/546 551/113/546 525/37/546
f 374/93/547 552/85/547 554/107/547 360/92/547
f 565/247/557 566/250/557 572/249/557 571/248/557
f 567/255/562 573/258/562 569/257/562 563/256/562
f 564/259/563 570/262/563 568/261/563 562/260/563
f 563/256/564 569/257/564 570/262/564 564/259/564
f 565/247/565 571/248/565 573/258/565 567/255/565
f 562/260/566 568/261/566 572/249/566 566/250/566
f 644/263/567 682/266/567 683/265/567 645/264/567
f 645/264/568 683/265/568 648/268/568 642/267/568
f 643/269/569 615/270/569 682/266/569 644/263/569
f 646/271/570 614/272/570 615/270/570 643/269/570
f 642/267/571 648/268/571 649/274/571 647/273/571
f 589/275/572 653/278/572 655/277/572 588/276/572
f 587/279/573 620/282/573 618/281/573 586/280/573
f 577/283/574 687/286/574 689/285/574 583/284/574
f 683/287/575 685/290/575 650/289/575 648/288/575
f 615/291/576 617/294/576 684/293/576 682/292/576
f 617/295/577 677/298/577 678/297/577 684/296/577
f 685/299/578 681/302/578 679/301/578 650/300/578
f 576/303/579 590/306/579 591/305/579 582/304/579
f 647/273/581 649/274/581 614/272/581 646/271/581
f 582/304/582 616/308/582 614/307/582 576/303/582
f 575/309/583 649/312/583 651/311/583 581/310/583
f 581/313/584 651/316/584 616/315/584 582/314/584
f 576/317/585 614/272/585 649/274/585 575/318/585
f 593/319/586 597/322/586 594/321/586 590/320/586
f 575/318/587 593/319/587 590/320/587 576/317/587
f 581/310/588 592/324/588 593/323/588 575/309/588
f 582/314/589 591/326/589 592/325/589 581/313/589
f 595/327/590 603/330/590 604/329/590 596/328/590
f 592/324/591 596/332/591 597/331/591 593/323/591
f 591/326/592 595/327/592 596/328/592 592/325/592
f 590/306/593 594/334/593 595/333/593 591/305/593
f 594/334/595 602/340/595 603/339/595 595/333/595
f 597/322/596 605/342/596 602/341/596 594/321/596
f 596/332/597 604/344/597 605/343/597 597/331/597
f 599/345/598 603/339/598 602/340/598 598/346/598
f 601/347/599 605/343/599 604/344/599 600/348/599
f 600/348/600 604/344/600 603/339/600 599/345/600
f 598/346/601 602/340/601 605/343/601 601/347/601
f 574/359/610 615/270/610 614/272/610 586/360/610
f 587/361/611 616/315/611 617/295/611 580/362/611
f 586/280/612 614/307/612 616/308/612 587/279/612
f 580/363/613 617/294/613 615/291/613 574/364/613
f 628/365/614 623/368/614 625/367/614 626/366/614
f 586/360/615 618/370/615 619/369/615 574/359/615
f 574/364/616 619/372/616 621/371/616 580/363/616
f 580/362/617 621/374/617 620/373/617 587/361/617
f 627/375/618 624/378/618 622/377/618 629/376/618
f 629/379/619 622/382/619 623/381/619 628/380/619
f 621/374/620 626/384/620 627/383/620 620/373/620
f 618/370/621 629/379/621 628/380/621 619/369/621
f 620/282/622 627/375/622 629/376/622 618/281/622
f 619/372/623 628/365/623 626/366/623 621/371/623
f 626/384/624 625/386/624 624/385/624 627/383/624
f 625/367/625 633/388/625 632/387/625 624/378/625
f 623/368/626 631/389/626 633/388/626 625/367/626
f 624/378/627 632/387/627 630/390/627 622/377/627
f 622/377/628 630/390/628 631/389/628 623/368/628
f 572/249/638 647/273/638 646/271/638 571/248/638
f 568/261/639 642/267/639 647/273/639 572/249/639
f 571/248/640 646/271/640 643/269/640 573/258/640
f 573/258/641 643/269/641 644/263/641 569/257/641
f 570/262/642 645/264/642 642/267/642 568/261/642
f 569/257/643 644/263/643 645/264/643 570/262/643
f 589/405/644 649/274/644 648/268/644 579/406/644
f 585/407/645 650/300/645 651/316/645 588/408/645
f 588/276/646 651/311/646 649/312/646 589/275/646
f 579/409/647 648/288/647 650/289/647 585/410/647
f 653/278/648 657/412/648 659/411/648 655/277/648
f 579/406/649 652/414/649 653/413/649 589/405/649
f 585/410/650 654/416/650 652/415/650 579/409/650
f 588/408/651 655/418/651 654/417/651 585/407/651
f 652/414/652 656/420/652 657/419/652 653/413/652
f 654/416/653 658/422/653 656/421/653 652/415/653
f 655/418/654 659/424/654 658/423/654 654/417/654
f 658/422/655 662/426/655 660/425/655 656/421/655
f 659/424/656 663/428/656 662/427/656 658/423/656
f 657/412/657 661/430/657 663/429/657 659/411/657
f 656/420/658 660/432/658 661/431/658 657/419/658
f 661/430/659 665/434/659 667/433/659 663/429/659
f 660/425/660 664/435/660 665/434/660 661/430/660
f 662/426/661 666/436/661 664/435/661 660/425/661
f 663/429/662 667/433/662 666/436/662 662/426/662
f 676/451/672 680/452/672 679/301/672 677/298/672
f 677/298/673 679/301/673 681/302/673 678/297/673
f 684/296/674 678/297/674 681/302/674 685/299/674
f 650/300/675 679/301/675 680/452/675 651/316/675
f 651/316/676 680/452/676 676/451/676 616/315/676
f 616/315/677 676/451/677 677/298/677 617/295/677
f 577/453/678 683/265/678 682/266/678 578/454/678
f 584/455/679 684/296/679 685/299/679 583/456/679
f 583/284/680 685/290/680 683/287/680 577/283/680
f 578/457/681 682/292/681 684/293/681 584/458/681
f 686/459/682 690/462/682 691/461/682 687/460/682
f 578/454/683 686/459/683 687/460/683 577/453/683
f 584/458/684 688/464/684 686/463/684 578/457/684
f 583/456/685 689/466/685 688/465/685 584/455/685
f 688/464/686 692/468/686 690/467/686 686/463/686
f 689/466/687 693/470/687 692/469/687 688/465/687
f 687/286/688 691/472/688 693/471/688 689/285/688
f 692/468/689 696/474/689 694/473/689 690/467/689
f 693/470/690 697/476/690 696/475/690 692/469/690
f 691/472/691 695/478/691 697/477/691 693/471/691
f 690/462/692 694/480/692 695/479/692 691/461/692
f 695/478/336 699/482/336 701/481/336 697/477/336
f 694/473/336 698/483/336 699/482/336 695/478/336
f 696/474/336 700/484/336 698/483/336 694/473/336
f 697/477/336 701/481/336 700/484/336 696/474/336
usemtl Bird_White
f 17/13/4 63/14/4 60/15/4 18/16/4
f 18/16/5 60/15/5 62/17/5 19/18/5
f 477/19/6 104/20/6 59/21/6 424/22/6
f 45/23/7 59/21/7 46/24/7 6/25/7
f 138/32/10 9/33/10 109/34/10 107/35/10
f 47/49/16 20/50/16 69/51/16 70/52/16
f 143/53/17 142/54/17 7/55/17 48/56/17
f 6/25/18 46/24/18 10/57/18 9/58/18
f 370/86/33 20/50/33 47/49/33 372/87/33
f 368/88/34 45/23/34 20/50/34 370/86/34
f 364/89/35 18/16/35 19/18/35 366/90/35
f 424/22/36 59/21/36 45/23/36 368/88/36
f 362/91/37 17/13/37 18/16/37 364/89/37
f 360/92/38 16/93/38 17/13/38 362/91/38
f 50/108/47 55/109/47 54/110/47 49/111/47
f 46/24/58 59/21/58 104/20/58 105/122/58
f 144/123/59 50/124/59 6/125/59 143/126/59
f 49/111/60 53/127/60 20/128/60 45/129/60
f 50/108/61 49/111/61 45/129/61 6/130/61
f 52/131/62 51/132/62 56/133/62 57/134/62
f 51/132/63 53/127/63 58/135/63 56/133/63
f 144/123/64 52/131/64 57/134/64 145/136/64
f 53/127/65 49/111/65 54/110/65 58/135/65
f 54/110/66 55/109/66 82/137/66 81/138/66
f 48/140/75 69/141/75 51/132/75 52/131/75
f 51/132/76 69/141/76 20/128/76 53/127/76
f 7/55/79 11/82/79 71/143/79 48/56/79
f 48/56/80 71/143/80 70/52/80 69/51/80
f 70/52/81 71/143/81 75/145/81 74/146/81
f 47/49/83 70/52/83 74/146/83 73/148/83
f 372/87/85 47/49/85 73/148/85 441/150/85
f 441/150/86 73/148/86 77/151/86 447/152/86
f 74/146/87 75/145/87 79/153/87 78/154/87
f 73/148/89 74/146/89 78/154/89 77/151/89
f 82/137/91 89/157/91 90/158/91 81/138/91
f 145/136/92 57/134/92 84/159/92 146/160/92
f 58/135/93 54/110/93 81/138/93 85/161/93
f 57/134/94 56/133/94 83/162/94 84/159/94
f 56/133/95 58/135/95 85/161/95 83/162/95
f 83/162/96 85/161/96 86/163/96 88/164/96
f 85/161/97 81/138/97 90/158/97 86/163/97
f 89/157/98 181/165/98 182/166/98 90/158/98
f 84/159/99 83/162/99 88/164/99 87/167/99
f 146/160/100 84/159/100 87/167/100 147/168/100
f 180/169/101 179/170/101 93/171/101 92/172/101
f 99/173/102 188/174/102 189/175/102 100/176/102
f 183/177/103 182/166/103 95/178/103 91/179/103
f 179/170/104 183/177/104 91/179/104 93/171/104
f 184/180/105 180/169/105 92/172/105 148/181/105
f 19/18/106 62/17/106 105/122/106 104/20/106
f 148/181/107 92/172/107 97/182/107 149/183/107
f 93/171/108 91/179/108 96/184/108 98/185/108
f 92/172/109 93/171/109 98/185/109 97/182/109
f 91/179/110 95/178/110 100/176/110 96/184/110
f 366/90/115 19/18/115 104/20/115 477/19/115
f 9/33/116 10/28/116 110/31/116 109/34/116
f 139/188/119 138/32/119 107/35/119 111/189/119
f 125/196/122 124/197/122 118/198/122 117/199/122
f 128/204/124 125/196/124 117/199/124 115/205/124
f 129/208/128 128/204/128 115/205/128 119/209/128
f 111/189/129 107/35/129 128/204/129 129/208/129
f 107/35/133 109/34/133 125/196/133 128/204/133
f 109/34/135 110/31/135 124/197/135 125/196/135
f 119/209/138 115/205/138 131/212/138 135/210/138
f 117/199/141 118/198/141 134/216/141 133/217/141
f 115/205/142 117/199/142 133/217/142 131/212/142
f 11/82/147 7/55/147 138/218/147 139/219/147
f 94/220/149 148/181/149 149/183/149 99/221/149
f 181/222/150 184/180/150 148/181/150 94/220/150
f 82/223/151 146/160/151 147/168/151 89/224/151
f 55/225/152 145/136/152 146/160/152 82/223/152
f 50/124/153 144/123/153 145/136/153 55/225/153
f 52/131/154 144/123/154 143/126/154 48/140/154
f 6/25/155 9/58/155 142/54/155 143/53/155
f 7/55/156 142/54/156 9/58/156 138/218/156
f 130/213/157 134/216/157 137/215/157 136/214/157
f 132/211/158 133/217/158 134/216/158 130/213/158
f 131/212/159 133/217/159 132/211/159 135/210/159
f 182/166/187 181/165/187 94/245/187 95/178/187
f 89/224/192 147/168/192 184/180/192 181/222/192
f 147/168/193 87/167/193 180/169/193 184/180/193
f 94/245/194 99/173/194 100/176/194 95/178/194
f 88/164/195 86/163/195 183/177/195 179/170/195
f 86/163/196 90/158/196 182/166/196 183/177/196
f 87/167/197 88/164/197 179/170/197 180/169/197
f 96/184/198 100/176/198 189/175/198 185/246/198
f 149/183/200 97/182/200 186/251/200 190/252/200
f 98/185/201 96/184/201 185/246/201 187/253/201
f 97/182/202 98/185/202 187/253/202 186/251/202
f 99/221/203 149/183/203 190/252/203 188/254/203
f 16/93/222 61/36/222 63/14/222 17/13/222
f 375/13/362 376/16/362 426/15/362 429/14/362
f 376/16/363 377/18/363 428/17/363 426/15/363
f 477/19/364 424/22/364 425/21/364 478/20/364
f 410/23/365 350/25/365 411/24/365 425/21/365
f 512/32/368 481/35/368 483/34/368 353/33/368
f 412/49/374 437/52/374 436/51/374 378/50/374
f 518/53/375 413/56/375 351/55/375 517/54/375
f 350/25/376 353/58/376 354/57/376 411/24/376
f 370/86/391 372/87/391 412/49/391 378/50/391
f 368/88/392 370/86/392 378/50/392 410/23/392
f 364/89/393 366/90/393 377/18/393 376/16/393
f 424/22/394 368/88/394 410/23/394 425/21/394
f 362/91/395 364/89/395 376/16/395 375/13/395
f 360/92/396 362/91/396 375/13/396 374/93/396
f 415/108/405 414/111/405 419/110/405 420/109/405
f 411/24/416 479/122/416 478/20/416 425/21/416
f 519/123/417 518/126/417 350/125/417 415/124/417
f 414/111/418 410/129/418 378/128/418 418/127/418
f 415/108/419 350/130/419 410/129/419 414/111/419
f 417/131/420 422/134/420 421/133/420 416/132/420
f 416/132/421 421/133/421 423/135/421 418/127/421
f 519/123/422 520/136/422 422/134/422 417/131/422
f 418/127/423 423/135/423 419/110/423 414/111/423
f 419/110/424 453/138/424 454/137/424 420/109/424
f 413/140/433 417/131/433 416/132/433 436/141/433
f 416/132/434 418/127/434 378/128/434 436/141/434
f 351/55/437 413/56/437 438/143/437 355/82/437
f 413/56/438 436/51/438 437/52/438 438/143/438
f 437/52/439 443/146/439 444/145/439 438/143/439
f 412/49/441 442/148/441 443/146/441 437/52/441
f 372/87/443 441/150/443 442/148/443 412/49/443
f 441/150/444 447/152/444 448/151/444 442/148/444
f 443/146/445 449/154/445 450/153/445 444/145/445
f 442/148/447 448/151/447 449/154/447 443/146/447
f 454/137/449 453/138/449 462/158/449 461/157/449
f 520/136/450 521/160/450 456/159/450 422/134/450
f 423/135/451 457/161/451 453/138/451 419/110/451
f 422/134/452 456/159/452 455/162/452 421/133/452
f 421/133/453 455/162/453 457/161/453 423/135/453
f 455/162/454 460/164/454 458/163/454 457/161/454
f 457/161/455 458/163/455 462/158/455 453/138/455
f 461/157/456 462/158/456 559/166/456 558/165/456
f 456/159/457 459/167/457 460/164/457 455/162/457
f 521/160/458 522/168/458 459/167/458 456/159/458
f 557/169/459 464/172/459 465/171/459 556/170/459
f 471/173/460 472/176/460 566/175/460 565/174/460
f 560/177/461 463/179/461 467/178/461 559/166/461
f 556/170/462 465/171/462 463/179/462 560/177/462
f 561/180/463 523/181/463 464/172/463 557/169/463
f 377/18/464 478/20/464 479/122/464 428/17/464
f 523/181/465 524/183/465 469/182/465 464/172/465
f 465/171/466 470/185/466 468/184/466 463/179/466
f 464/172/467 469/182/467 470/185/467 465/171/467
f 463/179/468 468/184/468 472/176/468 467/178/468
f 366/90/473 477/19/473 478/20/473 377/18/473
f 353/33/474 483/34/474 484/31/474 354/28/474
f 513/188/477 485/189/477 481/35/477 512/32/477
f 499/196/480 491/199/480 492/198/480 498/197/480
f 502/204/482 489/205/482 491/199/482 499/196/482
f 503/208/486 493/209/486 489/205/486 502/204/486
f 485/189/487 503/208/487 502/204/487 481/35/487
f 481/35/491 502/204/491 499/196/491 483/34/491
f 483/34/493 499/196/493 498/197/493 484/31/493
f 493/209/496 509/210/496 505/212/496 489/205/496
f 491/199/499 507/217/499 508/216/499 492/198/499
f 489/205/500 505/212/500 507/217/500 491/199/500
f 355/82/505 513/219/505 512/218/505 351/55/505
f 466/220/507 471/221/507 524/183/507 523/181/507
f 558/222/508 466/220/508 523/181/508 561/180/508
f 454/223/509 461/224/509 522/168/509 521/160/509
f 420/225/510 454/223/510 521/160/510 520/136/510
f 415/124/511 420/225/511 520/136/511 519/123/511
f 417/131/512 413/140/512 518/126/512 519/123/512
f 350/25/513 518/53/513 517/54/513 353/58/513
f 351/55/514 512/218/514 353/58/514 517/54/514
f 504/213/515 510/214/515 511/215/515 508/216/515
f 506/211/516 504/213/516 508/216/516 507/217/516
f 505/212/517 509/210/517 506/211/517 507/217/517
f 559/166/545 467/178/545 466/245/545 558/165/545
f 461/224/550 558/222/550 561/180/550 522/168/550
f 522/168/551 561/180/551 557/169/551 459/167/551
f 466/245/552 467/178/552 472/176/552 471/173/552
f 460/164/553 556/170/553 560/177/553 458/163/553
f 458/163/554 560/177/554 559/166/554 462/158/554
f 459/167/555 557/169/555 556/170/555 460/164/555
f 468/184/556 562/246/556 566/175/556 472/176/556
f 524/183/558 567/252/558 563/251/558 469/182/558
f 470/185/559 564/253/559 562/246/559 468/184/559
f 469/182/560 563/251/560 564/253/560 470/185/560
f 471/221/561 565/254/561 567/252/561 524/183/561
f 374/93/580 375/13/580 429/14/580 427/36/580
